<?xml version="1.0" encoding="UTF-8" standalone="no"?>
<!-- Created with Inkscape (http://www.inkscape.org/) -->

<svg
   xmlns:dc="http://purl.org/dc/elements/1.1/"
   xmlns:cc="http://creativecommons.org/ns#"
   xmlns:rdf="http://www.w3.org/1999/02/22-rdf-syntax-ns#"
   xmlns:svg="http://www.w3.org/2000/svg"
   xmlns="http://www.w3.org/2000/svg"
   xmlns:sodipodi="http://sodipodi.sourceforge.net/DTD/sodipodi-0.dtd"
   xmlns:inkscape="http://www.inkscape.org/namespaces/inkscape"
   width="223.883mm"
   height="233.71039mm"
   viewBox="0 0 223.883 233.71039"
   version="1.1"
   id="svg8"
   inkscape:version="0.92.4 (5da689c313, 2019-01-14)"
   sodipodi:docname="boo.svg">
  <defs
     id="defs2" />
  <sodipodi:namedview
     id="base"
     pagecolor="#ffffff"
     bordercolor="#666666"
     borderopacity="1.0"
     inkscape:pageopacity="0.0"
     inkscape:pageshadow="2"
     inkscape:zoom="0.7"
     inkscape:cx="179.27641"
     inkscape:cy="274.33214"
     inkscape:document-units="mm"
     inkscape:current-layer="layer1"
     showgrid="false"
     inkscape:window-width="1920"
     inkscape:window-height="1017"
     inkscape:window-x="-8"
     inkscape:window-y="-8"
     inkscape:window-maximized="1" />
  <metadata
     id="metadata5">
    <rdf:RDF>
      <cc:Work
         rdf:about="">
        <dc:format>image/svg+xml</dc:format>
        <dc:type
           rdf:resource="http://purl.org/dc/dcmitype/StillImage" />
        <dc:title></dc:title>
      </cc:Work>
    </rdf:RDF>
  </metadata>
  <g
     inkscape:label="Layer 1"
     inkscape:groupmode="layer"
     id="layer1"
     transform="translate(6.8641194,-2.8739759)">
    <rect
       style="opacity:1;fill:#ffdd55;fill-opacity:1;stroke:#ffdd55;stroke-width:1.63300002;stroke-linecap:round;stroke-linejoin:round;stroke-miterlimit:4;stroke-dasharray:none;stroke-dashoffset:0;stroke-opacity:1;paint-order:stroke fill markers"
       id="rect928"
       width="222.25"
       height="232.07739"
       x="-6.0476193"
       y="3.6904759"
       inkscape:export-xdpi="27.834101"
       inkscape:export-ydpi="27.834101" />
    <path
       style="fill:#784421;stroke:#28170b;stroke-width:2.2650001;stroke-linecap:butt;stroke-linejoin:miter;stroke-miterlimit:4;stroke-dasharray:none;stroke-opacity:1"
       d="m 80.448128,119.53303 c -15.878451,13.42795 -31.946993,25.46823 -44.366743,64.14469 32.750307,28.03712 58.767482,16.55369 86.004585,12.2307 l 16.44339,-65.821"
       id="path871"
       inkscape:connector-curvature="0"
       sodipodi:nodetypes="cccc"
       inkscape:export-xdpi="27.834101"
       inkscape:export-ydpi="27.834101" />
    <path
       style="fill:#784421;stroke:#28170b;stroke-width:2.30880308;stroke-linecap:round;stroke-linejoin:round;stroke-miterlimit:4;stroke-dasharray:none;stroke-opacity:1"
       d="m 138.52936,130.08742 c 3.76399,13.39196 13.82355,15.12244 -6.30381,72.76908 0,0 11.10399,1.04448 13.14613,4.93094 2.28872,4.67536 0.64281,8.20683 -4.34643,6.36753 l -6.17333,-5.6634 c 12.68714,10.95682 -3.66009,19.22334 -14.02801,8.85279 l -0.15535,-5.18296 c 0.0827,11.77464 -3.93567,9.84772 -9.60624,8.13612 -5.44801,-2.96824 -0.83727,-15.30128 3.30244,-14.10079 1.25426,-9.54405 -4.25867,-19.80043 3.77866,-28.63047"
       id="path852-8"
       inkscape:connector-curvature="0"
       sodipodi:nodetypes="cccccccccc"
       inkscape:export-xdpi="27.834101"
       inkscape:export-ydpi="27.834101" />
    <path
       style="fill:#784421;stroke:#28170b;stroke-width:2.2650001;stroke-linecap:round;stroke-linejoin:round;stroke-miterlimit:4;stroke-dasharray:none;stroke-opacity:1"
       d="m 66.920907,175.53072 c -1.168601,17.91168 -5.808204,21.40126 -12.582377,23.46375 11.365058,0.64087 14.245223,4.06507 16.200553,9.194 0.776839,6.52475 -2.10631,6.87281 -4.747517,7.34512 0.386326,-3.02816 -1.862231,-7.69824 -5.488568,-8.40056 3.687621,0.7042 5.441327,8.22833 2.881109,8.76497 -5.310056,1.11302 -0.0171,-4.12384 -8.57715,-4.45739 7.923519,0.64628 5.624088,5.82169 3.52691,7.72116 -3.457,3.13111 -9.238919,-3.42265 -12.091701,-7.04151 -1.944148,-11.49015 -9.1152,-7.62808 -13.142887,-13.78673 -10.301756,-15.54919 2.066884,-30.99254 13.907939,-40.93361"
       id="path869"
       inkscape:connector-curvature="0"
       sodipodi:nodetypes="cccccscaccc"
       inkscape:export-xdpi="27.834101"
       inkscape:export-ydpi="27.834101" />
    <path
       style="fill:#784421;stroke:#28170b;stroke-width:2.30880308;stroke-linecap:round;stroke-linejoin:round;stroke-miterlimit:4;stroke-dasharray:none;stroke-opacity:1"
       d="m 71.945385,122.5276 c -8.910435,14.2742 -21.073183,23.44788 6.303808,79.85173 0,0 -11.103993,1.04447 -13.146134,4.93093 -2.288715,4.67536 -0.642807,8.20684 4.346433,6.36753 l 5.606363,-3.30104 c -16.902733,8.05859 3.659864,19.22318 14.028009,8.85279 l 0.722313,-7.54532 c -0.08266,11.77465 5.164098,11.07615 10.834673,9.36454 5.448,-2.96823 -0.39116,-16.5297 -4.530866,-15.32921 -0.807058,-9.08828 5.123656,-17.88654 -3.912292,-27.96229"
       id="path852"
       inkscape:connector-curvature="0"
       sodipodi:nodetypes="cccccccccc"
       inkscape:export-xdpi="27.834101"
       inkscape:export-ydpi="27.834101" />
    <path
       style="opacity:1;fill:#784421;stroke:#2b1100;stroke-width:2.36500001;stroke-linecap:round;stroke-linejoin:round;stroke-miterlimit:4;stroke-dasharray:none;stroke-opacity:1"
       d="m 122.566,126.23376 c 0,0 -8.11686,21.15764 -17.52908,25.10435 -10.123437,4.24494 -25.564909,3.05199 -32.473245,-5.47903 -7.295136,-9.00868 1.469982,-34.74503 1.469982,-34.74503 -6.671829,-2.06516 -3.597529,-11.787839 -4.944486,-19.51068 1.902581,7.056033 -1.759747,16.93619 4.944486,19.51068 0,0 -4.051924,16.14506 -11.225318,15.63526 -8.453929,-0.6008 -16.064398,-11.0388 -16.303443,-19.51068 -0.509442,-18.05484 16.143433,-57.550999 32.345177,-43.473216 22.697587,-9.691044 34.927517,-4.632204 46.766607,0.977365 22.49868,-20.227923 35.01153,30.580267 34.21049,51.048481 -0.40633,10.38256 -8.95769,23.7502 -19.32399,24.45909 -8.4045,0.57474 -18.22066,-17.51287 -18.22066,-17.51287 -3.26589,-8.10363 3.23157,-20.45325 8.61273,-33.005004"
       id="path817"
       inkscape:connector-curvature="0"
       sodipodi:nodetypes="caacccsaccaacc"
       inkscape:export-xdpi="27.834101"
       inkscape:export-ydpi="27.834101" />
    <path
       style="fill:#000000;stroke:#000000;stroke-width:0.26458332px;stroke-linecap:butt;stroke-linejoin:miter;stroke-opacity:1"
       d="m 74.969102,133.83195 c 5.18129,-5.19792 26.628678,-4.42742 31.003268,-0.26726 2.58314,2.45652 1.39986,7.53993 -0.26727,10.69077 -2.17957,4.11935 -6.890705,6.82721 -11.358958,8.15172 -2.77898,0.82376 -5.945979,0.54364 -8.686259,-0.40091 -3.926262,-1.35335 -8.161959,-3.57348 -10.156243,-7.21627 -1.756132,-3.20778 -2.231566,-9.25557 -0.534538,-10.95805 z"
       id="path823"
       inkscape:connector-curvature="0"
       sodipodi:nodetypes="ssaaaas"
       inkscape:export-xdpi="27.834101"
       inkscape:export-ydpi="27.834101" />
    <path
       style="fill:none;stroke:#502d16;stroke-width:1.75403023;stroke-linecap:round;stroke-linejoin:miter;stroke-miterlimit:4;stroke-dasharray:none;stroke-opacity:1"
       d="m 107.2875,92.156127 c 0,0 2.1853,1.66972 3.46657,1.757396 4.53816,0.31053 12.94852,-4.498284 12.94852,-4.498284"
       id="path850"
       inkscape:connector-curvature="0"
       sodipodi:nodetypes="csc"
       inkscape:export-xdpi="27.834101"
       inkscape:export-ydpi="27.834101" />
    <path
       style="fill:#28170b;stroke:#28170b;stroke-width:0.22833712px;stroke-linecap:butt;stroke-linejoin:miter;stroke-opacity:1"
       d="m 86.098833,102.61855 c 1.004752,-2.2899 -1.274846,-5.597171 -3.545022,-6.559391 -2.491071,-1.055846 -6.748588,-0.291896 -7.830219,2.230012 -0.940998,2.194009 1.125562,5.347799 3.266844,6.326069 2.525616,1.15386 6.977066,0.58169 8.108397,-1.99669 z"
       id="path875"
       inkscape:connector-curvature="0"
       sodipodi:nodetypes="aaaaa"
       inkscape:transform-center-x="-0.60134857"
       inkscape:transform-center-y="1.0691305"
       inkscape:export-xdpi="27.834101"
       inkscape:export-ydpi="27.834101" />
    <path
       style="fill:#28170b;stroke:#28170b;stroke-width:0.22833712px;stroke-linecap:butt;stroke-linejoin:miter;stroke-opacity:1"
       d="m 121.58236,99.65544 c -0.27761,-2.485174 -3.90737,-4.205466 -6.35418,-3.900927 -2.68487,0.33417 -5.98687,3.128245 -5.65957,5.852737 0.28475,2.37024 3.65325,4.06443 5.99653,3.83836 2.76388,-0.26665 6.32979,-2.99191 6.01722,-5.79017 z"
       id="path875-0"
       inkscape:connector-curvature="0"
       sodipodi:nodetypes="aaaaa"
       inkscape:transform-center-x="-1.0814192"
       inkscape:transform-center-y="0.64245353"
       inkscape:export-xdpi="27.834101"
       inkscape:export-ydpi="27.834101" />
    <rect
       style="opacity:1;fill:#cccccc;fill-opacity:1;stroke:#2b1100;stroke-width:2.26499987;stroke-linecap:round;stroke-linejoin:round;stroke-miterlimit:4;stroke-dasharray:none;stroke-dashoffset:0;stroke-opacity:1;paint-order:stroke fill markers"
       id="rect892"
       width="4.4099469"
       height="2.6726952"
       x="93.945244"
       y="136.37102"
       inkscape:export-xdpi="27.834101"
       inkscape:export-ydpi="27.834101" />
    <ellipse
       style="opacity:1;fill:#ffffff;fill-opacity:1;stroke:#2b1100;stroke-width:2.96499991;stroke-linecap:round;stroke-linejoin:round;stroke-miterlimit:4;stroke-dasharray:none;stroke-dashoffset:0;stroke-opacity:1;paint-order:stroke fill markers"
       id="path894"
       cx="171.60118"
       cy="43"
       rx="25.324406"
       ry="23.8125"
       inkscape:export-xdpi="27.834101"
       inkscape:export-ydpi="27.834101" />
    <ellipse
       style="opacity:1;fill:#ffffff;fill-opacity:1;stroke:#2b1100;stroke-width:1.66669035;stroke-linecap:round;stroke-linejoin:round;stroke-miterlimit:4;stroke-dasharray:none;stroke-dashoffset:0;stroke-opacity:1;paint-order:stroke fill markers"
       id="path894-9"
       cx="175.00298"
       cy="77.206848"
       rx="6.5846782"
       ry="5.6397357"
       inkscape:export-xdpi="27.834101"
       inkscape:export-ydpi="27.834101" />
    <ellipse
       style="opacity:1;fill:#ffffff;fill-opacity:1;stroke:#2b1100;stroke-width:1.63300002;stroke-linecap:round;stroke-linejoin:round;stroke-miterlimit:4;stroke-dasharray:none;stroke-dashoffset:0;stroke-opacity:1;paint-order:stroke fill markers"
       id="path894-9-4"
       cx="166.87648"
       cy="88.546127"
       rx="4.0778742"
       ry="3.1329315"
       inkscape:export-xdpi="27.834101"
       inkscape:export-ydpi="27.834101" />
    <path
       style="fill:none;stroke:#000000;stroke-width:1.86500001;stroke-linecap:round;stroke-linejoin:round;stroke-miterlimit:4;stroke-dasharray:none;stroke-opacity:1"
       d="m 158.08992,38.550365 c 0.66818,-0.400904 17.23889,-7.082641 17.23889,-7.082641 l -19.10977,12.160763 13.36347,3.741774 3.87541,7.483547 c 0,0 -2.40542,-19.911581 -5.07812,-22.183371 -2.67269,-2.271791 -11.75986,19.64431 -10.28988,20.178848 1.46999,0.53454 19.91158,-10.95805 20.04522,-13.096206 0.13363,-2.138156 -9.6217,-12.160763 -11.75986,-8.68626 -2.13816,3.474503 1.33635,20.579754 2.40542,22.717911 1.06908,2.138156 13.63075,0.935442 13.63075,-4.810853 0,-5.746295 -1.87089,-14.165284 -4.67722,-17.506153 -2.80633,-3.34087 -16.57071,-10.958051 -14.56619,-0.133636 2.00453,10.824416 20.57976,12.294399 20.57976,10.156243 0,-2.138156 -3.34087,-6.949009 -3.34087,-6.949009 0,0 -24.18789,-11.626223 -23.78699,2.539061 0.40091,14.165286 -2.40542,21.782468 7.34991,21.114294 9.75534,-0.668176 24.18789,-7.750817 26.05878,-13.497112 1.87089,-5.746295 -4.00904,-13.630746 -10.69078,-13.49711 -6.68174,0.133633 -17.90706,2.405425 -17.50615,12.561667 0.4009,10.156241 0,16.437076 6.41447,17.238885 6.41446,0.801807 14.03165,0.133633 13.63074,-9.354434 -0.4009,-9.488069 -3.74177,-19.109771 -7.61718,-18.575231 -3.87541,0.534538 -9.88897,13.229841 -5.74629,17.907058 4.14267,4.677217 10.82441,0.668173 8.81989,-5.078121 -2.00452,-5.746295 -6.28083,-8.285356 -6.5481,-6.949009 -0.26727,1.336347 3.0736,10.423512 3.0736,7.617182"
       id="path926"
       inkscape:connector-curvature="0"
       inkscape:export-xdpi="27.834101"
       inkscape:export-ydpi="27.834101" />
  </g>
</svg>
