<?xml version="1.0" encoding="UTF-8" standalone="no"?>
<!-- Created with Inkscape (http://www.inkscape.org/) -->

<svg
   xmlns:dc="http://purl.org/dc/elements/1.1/"
   xmlns:cc="http://creativecommons.org/ns#"
   xmlns:rdf="http://www.w3.org/1999/02/22-rdf-syntax-ns#"
   xmlns:svg="http://www.w3.org/2000/svg"
   xmlns="http://www.w3.org/2000/svg"
   xmlns:sodipodi="http://sodipodi.sourceforge.net/DTD/sodipodi-0.dtd"
   xmlns:inkscape="http://www.inkscape.org/namespaces/inkscape"
   width="210mm"
   height="297mm"
   viewBox="0 0 210 297"
   version="1.1"
   id="svg8"
   inkscape:version="0.92.4 (5da689c313, 2019-01-14)"
   sodipodi:docname="boo2.svg">
  <defs
     id="defs2" />
  <sodipodi:namedview
     id="base"
     pagecolor="#ffffff"
     bordercolor="#666666"
     borderopacity="1.0"
     inkscape:pageopacity="0.0"
     inkscape:pageshadow="2"
     inkscape:zoom="1.4"
     inkscape:cx="599.95181"
     inkscape:cy="888.90265"
     inkscape:document-units="mm"
     inkscape:current-layer="layer1"
     showgrid="false"
     inkscape:window-width="1920"
     inkscape:window-height="1017"
     inkscape:window-x="-8"
     inkscape:window-y="-8"
     inkscape:window-maximized="1" />
  <metadata
     id="metadata5">
    <rdf:RDF>
      <cc:Work
         rdf:about="">
        <dc:format>image/svg+xml</dc:format>
        <dc:type
           rdf:resource="http://purl.org/dc/dcmitype/StillImage" />
        <dc:title></dc:title>
      </cc:Work>
    </rdf:RDF>
  </metadata>
  <g
     inkscape:label="Layer 1"
     inkscape:groupmode="layer"
     id="layer1">
    <path
       style="opacity:1;fill:#784421;stroke:#2b1100;stroke-width:2.36500001;stroke-linecap:round;stroke-linejoin:round;stroke-miterlimit:4;stroke-dasharray:none;stroke-opacity:1"
       d="m 137.69384,88.71002 c 0,0 -2.46044,15.18491 -8.30829,18.68988 -10.53488,6.31418 -27.89904,5.84322 -36.749552,-2.6727 -7.525466,-7.240969 -3.474505,-31.13689 -3.474505,-31.13689 -6.671829,-2.065161 -3.59753,-11.787841 -4.944487,-19.510682 1.902582,7.056032 -1.759747,16.936191 4.944487,19.510682 0,0 -7.259159,25.900398 -14.432553,25.390596 C 66.275011,98.380106 51.490643,78.07032 55.351897,68.645811 63.176853,49.546739 79.46957,12.163889 93.977908,26.241672 c 22.697592,-9.691044 34.927522,-4.632204 46.766612,0.977365 22.49868,-20.227923 35.01153,30.580267 34.21049,51.048482 -0.40633,10.382559 -8.95769,23.750201 -19.324,24.459091 -8.4045,0.57474 -18.22065,-17.512871 -18.22065,-17.512871 -3.2659,-8.10363 3.23156,-20.45325 8.61273,-33.005004"
       id="path817"
       inkscape:connector-curvature="0"
       sodipodi:nodetypes="caacccssccaacc"
       inkscape:export-xdpi="27.834101"
       inkscape:export-ydpi="27.834101" />
    <path
       style="fill:#000000;stroke:#000000;stroke-width:0.26458332px;stroke-linecap:butt;stroke-linejoin:miter;stroke-opacity:1"
       d="m 95.976868,89.492835 c 5.181292,-5.19792 26.628682,-4.42742 31.003262,-0.26726 2.58314,2.45652 1.39986,7.53993 -0.26726,10.69077 -2.17958,4.119345 -6.89071,6.827205 -11.35896,8.151715 -2.77898,0.82376 -5.94598,0.54364 -8.68626,-0.40091 -3.92626,-1.35335 -8.16196,-3.57348 -10.156244,-7.21627 -1.756132,-3.207775 -2.231567,-9.255565 -0.534538,-10.958045 z"
       id="path823"
       inkscape:connector-curvature="0"
       sodipodi:nodetypes="ssaaaas"
       inkscape:export-xdpi="27.834101"
       inkscape:export-ydpi="27.834101" />
    <path
       style="fill:#28170b;stroke:#28170b;stroke-width:0.22370884px;stroke-linecap:butt;stroke-linejoin:miter;stroke-opacity:1"
       d="m 102.81462,66.052986 c 0.90319,-0.998689 -1.82635,-5.041912 -4.021748,-6.089763 -2.602206,-1.242021 -8.600785,-2.04997 -8.610006,0.833432 -0.007,2.191076 2.338463,-1.303831 6.538496,0.67515 4.665708,2.1984 4.388808,6.465872 6.093258,4.581181 z"
       id="path875"
       inkscape:connector-curvature="0"
       sodipodi:nodetypes="saass"
       inkscape:transform-center-x="-0.43725482"
       inkscape:transform-center-y="1.0496623"
       inkscape:export-xdpi="27.834101"
       inkscape:export-ydpi="27.834101" />
    <rect
       style="opacity:1;fill:#cccccc;fill-opacity:1;stroke:#2b1100;stroke-width:2.26499987;stroke-linecap:round;stroke-linejoin:round;stroke-miterlimit:4;stroke-dasharray:none;stroke-dashoffset:0;stroke-opacity:1;paint-order:stroke fill markers"
       id="rect892"
       width="4.4099469"
       height="2.6726952"
       x="114.95301"
       y="92.031891"
       inkscape:export-xdpi="27.834101"
       inkscape:export-ydpi="27.834101" />
    <path
       style="fill:#28170b;stroke:#28170b;stroke-width:0.22370884px;stroke-linecap:butt;stroke-linejoin:miter;stroke-opacity:1"
       d="m 124.60207,65.313148 c -0.90319,-0.998689 1.82635,-5.041912 4.02175,-6.089763 2.60221,-1.242021 8.60078,-2.04997 8.61,0.833432 0.007,2.191076 -2.33846,-1.303831 -6.53849,0.67515 -4.66571,2.1984 -4.38881,6.465872 -6.09326,4.581181 z"
       id="path875-0"
       inkscape:connector-curvature="0"
       sodipodi:nodetypes="saass"
       inkscape:transform-center-x="0.43725625"
       inkscape:transform-center-y="1.0496623"
       inkscape:export-xdpi="27.834101"
       inkscape:export-ydpi="27.834101" />
    <path
       style="fill:#784421;stroke:#000000;stroke-width:1.365;stroke-linecap:butt;stroke-linejoin:miter;stroke-opacity:1;stroke-miterlimit:4;stroke-dasharray:none"
       d="m 90.714284,96.294643 -18.331844,-1.13393 -8.126489,9.638387 6.614583,12.66221 8.882441,-9.82738 -1.133928,10.58333 13.607143,-0.18899 -1.322917,-10.01637 8.126487,8.50447 8.69345,-6.04762 z"
       id="path1973"
       inkscape:connector-curvature="0" />
  </g>
</svg>
