<?xml version="1.0" encoding="UTF-8" standalone="no"?>
<!-- Created with Inkscape (http://www.inkscape.org/) -->

<svg
   xmlns:dc="http://purl.org/dc/elements/1.1/"
   xmlns:cc="http://creativecommons.org/ns#"
   xmlns:rdf="http://www.w3.org/1999/02/22-rdf-syntax-ns#"
   xmlns:svg="http://www.w3.org/2000/svg"
   xmlns="http://www.w3.org/2000/svg"
   xmlns:sodipodi="http://sodipodi.sourceforge.net/DTD/sodipodi-0.dtd"
   xmlns:inkscape="http://www.inkscape.org/namespaces/inkscape"
   width="253.00507mm"
   height="213.8237mm"
   viewBox="0 0 253.00507 213.8237"
   version="1.1"
   id="svg8"
   inkscape:version="0.92.4 (5da689c313, 2019-01-14)"
   sodipodi:docname="DOGS.svg">
  <defs
     id="defs2" />
  <sodipodi:namedview
     id="base"
     pagecolor="#ffffff"
     bordercolor="#666666"
     borderopacity="1.0"
     inkscape:pageopacity="0.0"
     inkscape:pageshadow="2"
     inkscape:zoom="0.7"
     inkscape:cx="420.28514"
     inkscape:cy="533.37831"
     inkscape:document-units="mm"
     inkscape:current-layer="layer1"
     showgrid="false"
     inkscape:window-width="1920"
     inkscape:window-height="1017"
     inkscape:window-x="-8"
     inkscape:window-y="-8"
     inkscape:window-maximized="1"
     inkscape:lockguides="true" />
  <metadata
     id="metadata5">
    <rdf:RDF>
      <cc:Work
         rdf:about="">
        <dc:format>image/svg+xml</dc:format>
        <dc:type
           rdf:resource="http://purl.org/dc/dcmitype/StillImage" />
        <dc:title></dc:title>
      </cc:Work>
    </rdf:RDF>
  </metadata>
  <g
     inkscape:label="Layer 1"
     inkscape:groupmode="layer"
     id="layer1"
     transform="translate(-3.2229484,26.12886)">
    <ellipse
       style="opacity:1;fill:#aaeeff;fill-opacity:1;stroke:none;stroke-width:1.76499999;stroke-linecap:round;stroke-linejoin:round;stroke-miterlimit:4;stroke-dasharray:none;stroke-dashoffset:0;stroke-opacity:1;paint-order:stroke fill markers"
       id="path1675"
       cx="125.75032"
       cy="76.10173"
       rx="108.11052"
       ry="102.23059"
       inkscape:export-filename="C:\Users\ppony\OneDrive\デスクトップ\path1677-2.png"
       inkscape:export-xdpi="27.834101"
       inkscape:export-ydpi="27.834101" />
    <path
       style="opacity:1;fill:#784421;stroke:#2b1100;stroke-width:2.36500001;stroke-linecap:round;stroke-linejoin:round;stroke-miterlimit:4;stroke-dasharray:none;stroke-opacity:1"
       d="m 85.863558,79.690384 c 0,0 0.206517,15.381559 -4.945965,19.846319 -9.28218,8.043237 -26.465522,10.586587 -36.657118,3.732107 C 35.594705,97.440553 35.44607,73.204152 35.44607,73.204152 28.517403,72.325649 29.861438,62.217465 27.197364,54.84459 c 3.095823,6.619916 1.199916,16.985037 8.248706,18.359562 0,0 -2.663943,26.766201 -9.817233,27.506408 C 17.198597,101.58293 2.4611764,86.011332 4.6319164,76.060526 9.0309864,55.894895 10.050781,17.725265 26.777937,29.077719 46.909775,11.791095 68.287457,15.051274 81.025233,19.268404 94.24602,0.8845068 111.89333,37.831222 117.41235,54.800927 c 3.58865,11.034279 5.208,27.278811 -4.10531,33.716933 -7.31753,5.05847 -25.922751,-6.341903 -25.922751,-6.341903 -4.619968,-7.415579 -2.764867,-26.583775 0.361232,-39.877797"
       id="path817"
       inkscape:connector-curvature="0"
       sodipodi:nodetypes="caacccssccsacc"
       inkscape:export-xdpi="27.834101"
       inkscape:export-ydpi="27.834101"
       inkscape:export-filename="C:\Users\ppony\OneDrive\デスクトップ\path1677-2.png" />
    <path
       style="fill:#000000;stroke:#000000;stroke-width:0.26458332px;stroke-linecap:butt;stroke-linejoin:miter;stroke-opacity:1"
       d="m 44.91252,87.686071 c 4.202805,-6.016693 25.459553,-8.972174 30.488503,-5.632482 2.969537,1.972043 2.684501,7.183565 1.588246,10.575513 -1.433243,4.434561 -5.604228,7.917398 -9.775577,9.995718 -2.594327,1.29259 -5.761984,1.56517 -8.624438,1.10947 -4.101311,-0.65294 -8.657498,-2.10597 -11.252519,-5.348337 -2.28513,-2.85516 -3.800759,-8.72923 -2.424215,-10.699882 z"
       id="path823"
       inkscape:connector-curvature="0"
       sodipodi:nodetypes="ssaaaas"
       inkscape:export-xdpi="27.834101"
       inkscape:export-ydpi="27.834101"
       inkscape:export-filename="C:\Users\ppony\OneDrive\デスクトップ\path1677-2.png" />
    <rect
       style="opacity:1;fill:#cccccc;fill-opacity:1;stroke:#2b1100;stroke-width:2.26499987;stroke-linecap:round;stroke-linejoin:round;stroke-miterlimit:4;stroke-dasharray:none;stroke-dashoffset:0;stroke-opacity:1;paint-order:stroke fill markers"
       id="rect892"
       width="4.4099469"
       height="2.6726952"
       x="48.02422"
       y="96.678268"
       inkscape:export-xdpi="27.834101"
       inkscape:export-ydpi="27.834101"
       transform="rotate(-9.9729791)"
       inkscape:export-filename="C:\Users\ppony\OneDrive\デスクトップ\path1677-2.png" />
    <path
       style="fill:#28170b;stroke:#28170b;stroke-width:0.2352419px;stroke-linecap:butt;stroke-linejoin:miter;stroke-opacity:1"
       d="m 45.125747,65.873864 c 1.189318,-1.935003 -0.764169,-5.009935 -2.648463,-6.27806 -2.256146,-1.518379 -6.536069,-2.290379 -8.157788,-0.107331 -1.4557,1.959567 0.201519,5.615436 2.206889,6.982862 2.365307,1.612866 7.094772,1.850473 8.599362,-0.597471 z"
       id="path875-9"
       inkscape:connector-curvature="0"
       sodipodi:nodetypes="aaaaa"
       inkscape:transform-center-x="-0.41452788"
       inkscape:transform-center-y="1.1960716"
       inkscape:export-xdpi="27.834101"
       inkscape:export-ydpi="27.834101"
       inkscape:export-filename="C:\Users\ppony\OneDrive\デスクトップ\path1677-2.png" />
    <path
       style="fill:#28170b;stroke:#28170b;stroke-width:0.23524192px;stroke-linecap:butt;stroke-linejoin:miter;stroke-opacity:1"
       d="m 71.655065,60.335876 c -1.778073,-1.413214 -0.99073,-4.970096 0.347932,-6.804948 1.602844,-2.196946 5.362676,-4.382663 7.631825,-2.883788 2.036865,1.345431 1.726195,5.347336 0.307585,7.316837 -1.673217,2.323001 -6.037928,4.159735 -8.287342,2.371899 z"
       id="path875-9-0"
       inkscape:connector-curvature="0"
       sodipodi:nodetypes="aaaaa"
       inkscape:transform-center-x="-0.057582544"
       inkscape:transform-center-y="1.1887007"
       inkscape:export-xdpi="27.834101"
       inkscape:export-ydpi="27.834101"
       inkscape:export-filename="C:\Users\ppony\OneDrive\デスクトップ\path1677-2.png" />
    <path
       style="opacity:1;fill:#1a1a1a;stroke:#333333;stroke-width:1.89565063;stroke-linecap:round;stroke-linejoin:round;stroke-miterlimit:4;stroke-dasharray:none;stroke-opacity:1"
       d="m 170.58514,87.171511 c 40.33336,-5.59627 26.39299,5.844203 50.27311,-12.168859 2.98205,-4.788091 5.88461,-17.677573 8.16492,-25.548533 -2.91537,6.917297 -3.34752,17.913858 -9.36362,25.197802 1.41048,4.214133 3.3162,9.796681 0.9416,17.223685 4.61775,-0.690992 10.60191,-1.341041 21.80869,3.78838 1.37723,-3.663451 3.24805,-11.61003 12.87044,-13.557153 C 247.28797,73.866152 250.28685,70.651291 254.75929,63.66347 243.64349,52.036955 250.28912,40.233416 254.16494,40.315125 241.43816,32.054421 239.3326,11.132451 226.41255,22.149668 202.66768,6.2135039 180.02263,12.156572 166.80003,18.103696 156.26047,2.8819703 145.41339,27.241695 133.73148,35.778769 c 12.96591,3.664224 -5.82509,32.957667 -8.11013,32.17359 16.24016,5.997597 11.3671,8.852266 10.30963,20.882049 21.48735,-6.222609 21.54564,-4.672016 28.00512,0.118019 -0.0514,-3.788034 7.41558,-9.271779 6.77515,-16.642181 -0.69173,-7.960826 -7.65455,-14.60528 -1.65434,-14.973491 -1.00911,-3.957352 -3.61725,-10.647245 -3.62443,-14.71439"
       id="path817-3"
       inkscape:connector-curvature="0"
       sodipodi:nodetypes="cccccccccccccccscc"
       inkscape:export-xdpi="27.834101"
       inkscape:export-ydpi="27.834101"
       inkscape:export-filename="C:\Users\ppony\OneDrive\デスクトップ\path1677-2.png" />
    <path
       style="fill:#ffeeaa;stroke:#333333;stroke-width:1.89565063;stroke-linecap:round;stroke-linejoin:round;stroke-miterlimit:4;stroke-dasharray:none;stroke-opacity:1"
       d="m 167.55029,62.151276 c 0,0 8.96389,0.521042 12.26271,3.107229 5.92771,6.126922 5.11035,18.824607 13.0336,19.685719 9.50887,1.033437 11.35238,-17.030232 20.5264,-19.694445 3.3207,-0.964363 10.18438,2.01343 10.18438,2.01343 -0.88729,5.462432 -0.52758,5.372943 -2.69913,7.739443 -3.70968,2.839042 -9.22485,11.160396 -15.135,25.006958 -1.68758,3.95373 -10.4314,8.05239 -15.81806,7.07851 -9.26499,-0.4049 -13.64489,-6.61479 -17.32037,-15.277944 -1.06847,-2.518379 -8.32767,-8.426499 -4.26085,-10.526063 -2.70014,-11.885914 -8.88748,-6.973471 2.09829,-11.412766 -1.02648,-1.880371 -2.28902,-5.029217 -2.87197,-7.720071 z"
       id="path1437"
       inkscape:connector-curvature="0"
       sodipodi:nodetypes="ccaaccscsccc"
       inkscape:export-filename="C:\Users\ppony\OneDrive\デスクトップ\path1677-2.png"
       inkscape:export-xdpi="27.834101"
       inkscape:export-ydpi="27.834101" />
    <path
       style="fill:#333333;stroke:#000000;stroke-width:0.2063055px;stroke-linecap:butt;stroke-linejoin:miter;stroke-opacity:1"
       d="m 204.31943,90.808405 c -3.54649,-4.511211 -20.15455,-5.840821 -23.88832,-2.996787 -2.20476,1.679363 -1.73187,5.741831 -0.71865,8.343851 1.32469,3.401816 4.72394,5.932911 8.05555,7.365601 2.07204,0.89104 4.53884,0.95792 6.73399,0.46934 3.14523,-0.70004 6.60407,-2.04679 8.45727,-4.702275 1.6319,-2.338405 2.52173,-7.002169 1.36016,-8.47973 z"
       id="path823-1"
       inkscape:connector-curvature="0"
       sodipodi:nodetypes="ssaaaas"
       inkscape:export-xdpi="27.834101"
       inkscape:export-ydpi="27.834101"
       inkscape:export-filename="C:\Users\ppony\OneDrive\デスクトップ\path1677-2.png" />
    <path
       style="fill:#333333;stroke:#ffffff;stroke-width:0.38891074;stroke-linecap:butt;stroke-linejoin:miter;stroke-miterlimit:4;stroke-dasharray:none;stroke-opacity:1"
       d="m 183.25093,54.893008 c 0.44268,-3.462385 -3.66101,-7.472035 -7.05081,-7.645274 -3.2467,-0.165923 -7.17431,3.258674 -7.27536,6.605522 -0.0868,2.875068 3.13737,5.815364 5.89121,6.200722 3.24815,0.454524 8.00623,-1.807796 8.43496,-5.16097 z"
       id="path875-9-3"
       inkscape:connector-curvature="0"
       sodipodi:nodetypes="aaaaa"
       inkscape:transform-center-x="-1.0932865"
       inkscape:transform-center-y="1.2189277"
       inkscape:export-xdpi="27.834101"
       inkscape:export-ydpi="27.834101"
       inkscape:export-filename="C:\Users\ppony\OneDrive\デスクトップ\path1677-2.png" />
    <path
       style="fill:#5f8dd3;stroke:#ffffff;stroke-width:0.38891074;stroke-linecap:butt;stroke-linejoin:miter;stroke-miterlimit:4;stroke-dasharray:none;stroke-opacity:1"
       d="m 222.53857,57.919953 c 0.44269,-3.462385 -3.66101,-7.472033 -7.0508,-7.645274 -3.24668,-0.165923 -7.1743,3.258674 -7.27537,6.605522 -0.0868,2.875067 3.13737,5.815366 5.89122,6.200722 3.24816,0.454524 8.00622,-1.807795 8.43495,-5.16097 z"
       id="path875-9-3-9"
       inkscape:connector-curvature="0"
       sodipodi:nodetypes="aaaaa"
       inkscape:transform-center-x="-1.0932805"
       inkscape:transform-center-y="1.2189268"
       inkscape:export-xdpi="27.834101"
       inkscape:export-ydpi="27.834101"
       inkscape:export-filename="C:\Users\ppony\OneDrive\デスクトップ\path1677-2.png" />
    <rect
       style="opacity:1;fill:#cccccc;fill-opacity:1;stroke:#2b1100;stroke-width:2.43272114;stroke-linecap:round;stroke-linejoin:round;stroke-miterlimit:4;stroke-dasharray:none;stroke-dashoffset:0;stroke-opacity:1;paint-order:stroke fill markers"
       id="rect892-3"
       width="4.7733674"
       height="2.8484349"
       x="150.06465"
       y="138.80881"
       inkscape:export-xdpi="27.834101"
       inkscape:export-ydpi="27.834101"
       transform="matrix(0.96132465,-0.27541773,0.284915,0.95855279,0,0)"
       inkscape:export-filename="C:\Users\ppony\OneDrive\デスクトップ\path1677-2.png" />
    <ellipse
       style="opacity:1;fill:#ffffff;fill-opacity:1;stroke:#ffffff;stroke-width:0.17805238;stroke-linecap:round;stroke-linejoin:round;stroke-miterlimit:4;stroke-dasharray:none;stroke-dashoffset:0;stroke-opacity:1;paint-order:stroke fill markers"
       id="path1484-1"
       cx="172.05476"
       cy="75.244202"
       transform="matrix(0.99418613,-0.1076752,0.11166087,0.99374637,0,0)"
       rx="1.5399078"
       ry="1.5125096"
       inkscape:export-filename="C:\Users\ppony\OneDrive\デスクトップ\path1677-2.png"
       inkscape:export-xdpi="27.834101"
       inkscape:export-ydpi="27.834101" />
    <ellipse
       style="opacity:1;fill:#ffffff;fill-opacity:1;stroke:#ffffff;stroke-width:0.17805238;stroke-linecap:round;stroke-linejoin:round;stroke-miterlimit:4;stroke-dasharray:none;stroke-dashoffset:0;stroke-opacity:1;paint-order:stroke fill markers"
       id="path1484-1-1"
       cx="209.39761"
       cy="82.232864"
       transform="matrix(0.99418613,-0.1076752,0.11166087,0.99374637,0,0)"
       rx="1.5399078"
       ry="1.5125096"
       inkscape:export-filename="C:\Users\ppony\OneDrive\デスクトップ\path1677-2.png"
       inkscape:export-xdpi="27.834101"
       inkscape:export-ydpi="27.834101" />
    <path
       style="fill:#ffeeaa;stroke:#28170b;stroke-width:0.25265524px;stroke-linecap:butt;stroke-linejoin:miter;stroke-opacity:1"
       d="m 213.99391,42.671336 c 1.51138,1.908014 -0.22786,5.388546 -2.10729,6.949809 -2.25033,1.869369 -6.76981,3.185388 -8.77654,1.065456 -1.80129,-1.902914 -0.4503,-5.963374 1.54778,-7.643804 2.35672,-1.982052 7.42405,-2.785263 9.33605,-0.371461 z"
       id="path875-9-9"
       inkscape:connector-curvature="0"
       sodipodi:nodetypes="aaaaa"
       inkscape:transform-center-x="-0.30018791"
       inkscape:transform-center-y="-1.2771477"
       inkscape:export-xdpi="27.834101"
       inkscape:export-ydpi="27.834101"
       inkscape:export-filename="C:\Users\ppony\OneDrive\デスクトップ\path1677-2.png" />
    <path
       style="fill:#ffeeaa;stroke:#28170b;stroke-width:0.25265524px;stroke-linecap:butt;stroke-linejoin:miter;stroke-opacity:1"
       d="m 178.53405,40.279617 c -1.74774,1.702342 -0.4767,5.372843 1.18367,7.157493 1.98804,2.136836 6.29872,4.010099 8.56537,2.159845 2.03462,-1.66084 1.22426,-5.857696 -0.53826,-7.775446 -2.07883,-2.261963 -6.99974,-3.695497 -9.21078,-1.541892 z"
       id="path875-9-0-9"
       inkscape:connector-curvature="0"
       sodipodi:nodetypes="aaaaa"
       inkscape:transform-center-x="0.11113201"
       inkscape:transform-center-y="-1.274589"
       inkscape:export-xdpi="27.834101"
       inkscape:export-ydpi="27.834101"
       inkscape:export-filename="C:\Users\ppony\OneDrive\デスクトップ\path1677-2.png" />
    <path
       style="opacity:1;fill:#a05a2c;stroke:#2b1100;stroke-width:2.36500001;stroke-linecap:round;stroke-linejoin:round;stroke-miterlimit:4;stroke-dasharray:none;stroke-opacity:1"
       d="m 152.03705,159.49576 c -5.04668,-6.19198 -4.67614,19.91821 -11.58202,24.23353 -6.90054,4.31198 -16.80044,3.29817 -23.6128,-1.15184 -7.11871,-4.65013 -6.96155,-28.04092 -14.11668,-35.42552 -6.778183,-1.68357 -4.260059,-11.56491 -6.042705,-19.19897 2.299566,6.93682 -0.796708,17.00873 6.042705,19.19897 0,0 0.10089,36.96109 -7.089872,36.85879 -8.4744,-0.12052 -30.457509,-18.48132 -26.51949,-27.87401 8.38951,-20.01007 16.640021,-69.895302 30.166543,-53.82254 22.017099,-14.811007 42.866129,-9.070641 55.022629,-3.391341 13.49879,-16.035536 21.45821,27.907171 38.79264,47.432351 4.74421,5.34379 -6.61447,33.55471 -20.05132,35.40993 -9.20256,1.27059 -19.79033,-19.62285 -19.79033,-19.62285 -2.40476,-5.30701 -1.46266,-10.6561 0.77296,-21.2807 1.24511,0.43776 4.67372,-10.99894 4.25413,-18.28062"
       id="path817-4"
       inkscape:connector-curvature="0"
       sodipodi:nodetypes="csscccssccsaccc"
       inkscape:export-xdpi="27.834101"
       inkscape:export-ydpi="27.834101"
       inkscape:transform-center-x="77.318791"
       inkscape:transform-center-y="-75.730339"
       inkscape:export-filename="C:\Users\ppony\OneDrive\デスクトップ\path1677-2.png" />
    <path
       style="fill:#000000;stroke:#000000;stroke-width:0.18916582px;stroke-linecap:butt;stroke-linejoin:miter;stroke-opacity:1"
       d="m 117.50176,171.35822 c 3.50031,-3.91491 18.72225,-4.07672 21.95866,-1.22808 1.91106,1.68208 1.23979,5.381 0.16215,7.70489 -1.4089,3.0382 -4.65795,5.14488 -7.78039,6.24762 -1.94197,0.68584 -4.19516,0.58998 -6.16786,0.001 -2.82646,-0.84308 -5.90067,-2.29978 -7.4335,-4.8555 -1.34979,-2.25051 -1.88552,-6.58825 -0.73906,-7.8705 z"
       id="path823-19"
       inkscape:connector-curvature="0"
       sodipodi:nodetypes="ssaaaas"
       inkscape:export-xdpi="27.834101"
       inkscape:export-ydpi="27.834101"
       inkscape:export-filename="C:\Users\ppony\OneDrive\デスクトップ\path1677-2.png" />
    <rect
       style="opacity:1;fill:#cccccc;fill-opacity:1;stroke:#2b1100;stroke-width:1.61937916;stroke-linecap:round;stroke-linejoin:round;stroke-miterlimit:4;stroke-dasharray:none;stroke-dashoffset:0;stroke-opacity:1;paint-order:stroke fill markers"
       id="rect892-1"
       width="3.1281505"
       height="1.9259986"
       x="123.02129"
       y="178.53162"
       inkscape:export-xdpi="27.834101"
       inkscape:export-ydpi="27.834101"
       transform="matrix(0.99889046,-0.04709408,0.04562809,0.9989585,0,0)"
       inkscape:export-filename="C:\Users\ppony\OneDrive\デスクトップ\path1677-2.png" />
    <path
       style="fill:#000000;stroke:#000000;stroke-width:0.33960542;stroke-linecap:butt;stroke-linejoin:miter;stroke-miterlimit:4;stroke-dasharray:none;stroke-opacity:1"
       d="m 114.7926,139.54565 c 1.04285,-2.84177 -1.75456,-6.90576 -4.66256,-7.61929 -2.78523,-0.68342 -6.84439,1.54295 -7.56887,4.34464 -0.62232,2.40675 1.61546,5.42286 3.93135,6.20855 2.73159,0.9267 7.2901,-0.18178 8.30008,-2.9339 z"
       id="path875-9-3-98"
       inkscape:connector-curvature="0"
       sodipodi:nodetypes="aaaaa"
       inkscape:transform-center-x="-0.62925714"
       inkscape:transform-center-y="1.1863126"
       inkscape:export-xdpi="27.834101"
       inkscape:export-ydpi="27.834101"
       inkscape:export-filename="C:\Users\ppony\OneDrive\デスクトップ\path1677-2.png" />
    <path
       style="fill:#000000;stroke:#000000;stroke-width:0.34349611;stroke-linecap:butt;stroke-linejoin:miter;stroke-miterlimit:4;stroke-dasharray:none;stroke-opacity:1"
       d="m 140.78907,138.50981 c -0.96782,-2.93036 1.93562,-7.02248 4.86152,-7.68541 2.80238,-0.63495 6.8018,1.73533 7.4524,4.61738 0.55886,2.4758 -1.75757,5.50907 -4.09343,6.2594 -2.75515,0.88501 -7.28317,-0.35344 -8.22049,-3.19137 z"
       id="path875-9-3-98-6"
       inkscape:connector-curvature="0"
       sodipodi:nodetypes="aaaaa"
       inkscape:transform-center-x="0.67031328"
       inkscape:transform-center-y="1.19685"
       inkscape:export-xdpi="27.834101"
       inkscape:export-ydpi="27.834101"
       inkscape:export-filename="C:\Users\ppony\OneDrive\デスクトップ\path1677-2.png" />
    <ellipse
       style="opacity:1;fill:#ffffff;fill-opacity:1;stroke:#ffffff;stroke-width:0.09732881;stroke-linecap:round;stroke-linejoin:round;stroke-miterlimit:4;stroke-dasharray:none;stroke-dashoffset:0;stroke-opacity:1;paint-order:stroke fill markers"
       id="path1484-1-4"
       cx="99.252968"
       cy="148.91669"
       transform="matrix(0.99497956,-0.1000783,0.09510276,0.99546746,0,0)"
       rx="0.82495433"
       ry="0.8436265"
       inkscape:export-filename="C:\Users\ppony\OneDrive\デスクトップ\path1677-2.png"
       inkscape:export-xdpi="27.834101"
       inkscape:export-ydpi="27.834101" />
    <ellipse
       style="opacity:1;fill:#ffffff;fill-opacity:1;stroke:#ffffff;stroke-width:0.09732881;stroke-linecap:round;stroke-linejoin:round;stroke-miterlimit:4;stroke-dasharray:none;stroke-dashoffset:0;stroke-opacity:1;paint-order:stroke fill markers"
       id="path1484-1-4-0"
       cx="135.67876"
       cy="152.56383"
       transform="matrix(0.99497956,-0.1000783,0.09510276,0.99546746,0,0)"
       rx="0.82495433"
       ry="0.8436265"
       inkscape:export-filename="C:\Users\ppony\OneDrive\デスクトップ\path1677-2.png"
       inkscape:export-xdpi="27.834101"
       inkscape:export-ydpi="27.834101" />
    <path
       style="fill:#a05a2c;stroke:#784421;stroke-width:0.21765226px;stroke-linecap:butt;stroke-linejoin:miter;stroke-opacity:1"
       d="m 147.72644,123.12853 c 0.91286,1.81772 -1.37379,4.23865 -3.36568,5.1058 -2.38499,1.03829 -6.64388,1.18499 -7.94598,-0.89982 -1.16878,-1.87138 0.90292,-4.83063 3.02505,-5.76891 2.50303,-1.10669 7.13177,-0.73667 8.28661,1.56293 z"
       id="path875-9-9-2"
       inkscape:connector-curvature="0"
       sodipodi:nodetypes="aaaaa"
       inkscape:transform-center-x="-0.55069262"
       inkscape:transform-center-y="-1.0308208"
       inkscape:export-xdpi="27.834101"
       inkscape:export-ydpi="27.834101"
       inkscape:export-filename="C:\Users\ppony\OneDrive\デスクトップ\path1677-2.png" />
    <path
       style="fill:#a05a2c;stroke:#784421;stroke-width:0.21124093px;stroke-linecap:butt;stroke-linejoin:miter;stroke-opacity:1"
       d="m 104.81143,124.00812 c -0.83601,1.78971 1.43402,4.10337 3.38012,4.9087 2.33018,0.96426 6.44812,1.02221 7.6534,-1.03553 1.08189,-1.8471 -0.99406,-4.6897 -3.06779,-5.56172 -2.44591,-1.02858 -6.9081,-0.57555 -7.96573,1.68855 z"
       id="path875-9-0-9-4"
       inkscape:connector-curvature="0"
       sodipodi:nodetypes="aaaaa"
       inkscape:transform-center-x="0.55559779"
       inkscape:transform-center-y="-1.0015391"
       inkscape:export-xdpi="27.834101"
       inkscape:export-ydpi="27.834101"
       inkscape:export-filename="C:\Users\ppony\OneDrive\デスクトップ\path1677-2.png" />
    <path
       style="opacity:0.581;fill:#784421;stroke:#502d16;stroke-width:0.95356596;stroke-linecap:round;stroke-linejoin:miter;stroke-miterlimit:4;stroke-dasharray:none;stroke-opacity:1"
       d="m 63.265294,50.185232 c -3.461577,2.451622 -7.816904,3.521713 -13.178964,3.03563"
       id="path1677"
       inkscape:connector-curvature="0"
       sodipodi:nodetypes="cc"
       inkscape:export-filename="C:\Users\ppony\OneDrive\デスクトップ\path1677-2.png"
       inkscape:export-xdpi="27.834101"
       inkscape:export-ydpi="27.834101" />
    <path
       style="opacity:0.581;fill:#784421;stroke:#502d16;stroke-width:1.04831135;stroke-linecap:round;stroke-linejoin:miter;stroke-miterlimit:4;stroke-dasharray:none;stroke-opacity:1"
       d="m 61.459895,47.971254 c -2.87268,1.770857 -6.487061,2.543807 -10.936906,2.192698"
       id="path1677-2"
       inkscape:connector-curvature="0"
       sodipodi:nodetypes="cc"
       inkscape:export-filename="C:\Users\ppony\OneDrive\デスクトップ\path1677-2.png"
       inkscape:export-xdpi="27.834101"
       inkscape:export-ydpi="27.834101" />
  </g>
</svg>
