<?xml version="1.0" encoding="UTF-8" standalone="no"?>
<svg
   xmlns:dc="http://purl.org/dc/elements/1.1/"
   xmlns:cc="http://creativecommons.org/ns#"
   xmlns:rdf="http://www.w3.org/1999/02/22-rdf-syntax-ns#"
   xmlns:svg="http://www.w3.org/2000/svg"
   xmlns="http://www.w3.org/2000/svg"
   xmlns:sodipodi="http://sodipodi.sourceforge.net/DTD/sodipodi-0.dtd"
   xmlns:inkscape="http://www.inkscape.org/namespaces/inkscape"
   width="160.92799mm"
   height="241.15146mm"
   viewBox="0 0 160.92799 241.15145"
   version="1.1"
   id="svg8"
   inkscape:version="1.0.2 (e86c870879, 2021-01-15, custom)"
   sodipodi:docname="logo.svg"
   inkscape:export-filename="C:\Users\ppony\OneDrive\デスクトップ\portfolio\image\myk_logo.png"
   inkscape:export-xdpi="27.834101"
   inkscape:export-ydpi="27.834101">
  <defs
     id="defs2" />
  <sodipodi:namedview
     id="base"
     pagecolor="#ffffff"
     bordercolor="#666666"
     borderopacity="1.0"
     inkscape:pageopacity="0.0"
     inkscape:pageshadow="2"
     inkscape:zoom="0.35355339"
     inkscape:cx="703.53036"
     inkscape:cy="808.31939"
     inkscape:document-units="mm"
     inkscape:current-layer="layer1"
     showgrid="false"
     inkscape:lockguides="true"
     inkscape:window-width="1920"
     inkscape:window-height="1017"
     inkscape:window-x="-8"
     inkscape:window-y="-8"
     inkscape:window-maximized="1"
     inkscape:document-rotation="0" />
  <metadata
     id="metadata5">
    <rdf:RDF>
      <cc:Work
         rdf:about="">
        <dc:format>image/svg+xml</dc:format>
        <dc:type
           rdf:resource="http://purl.org/dc/dcmitype/StillImage" />
        <dc:title />
      </cc:Work>
    </rdf:RDF>
  </metadata>
  <g
     inkscape:label="Layer 1"
     inkscape:groupmode="layer"
     id="layer1"
     transform="translate(-89.244654,88.812761)">
    <path
       id="text821"
       style="font-style:normal;font-variant:normal;font-weight:normal;font-stretch:normal;font-size:10.5833px;line-height:1.25;font-family:'851MkPOP';-inkscape-font-specification:'851MkPOP';font-variant-ligatures:normal;font-variant-caps:normal;font-variant-numeric:normal;font-feature-settings:normal;text-align:start;letter-spacing:0px;word-spacing:0px;writing-mode:lr-tb;text-orientation:upright;text-anchor:start;fill:#000000;fill-opacity:1;stroke:none;stroke-width:2.61891"
       d="m 112.79033,-54.278676 c -0.10364,0.101237 -0.15513,0.623691 -0.15513,1.567547 0,0.910153 0.0522,1.365289 0.15513,1.365289 0.89685,0 2.27664,0.219039 4.13934,0.657305 1.8972,0.438269 2.93207,0.927012 3.10449,1.466421 0.27595,0.741588 0.41395,2.09006 0.41395,4.045281 0,7.045513 -0.48292,23.159226 -1.44878,48.341039 -0.10364,2.3597584 -0.51745,4.0452774 -1.24177,5.0566141 -0.41393,0.5731208 -1.63849,1.0281575 -3.67367,1.3652707 -2.00069,0.3034351 -3.57016,0.4551252 -4.70849,0.4551252 -0.17247,0.438268 -0.2535,1.011311 -0.2535,1.719268 0.034,0.67416 0.11556,1.07872 0.2535,1.213581 1.10384,-0.0335 2.43186,-0.101431 3.98409,-0.20215 1.55224,-0.101225 2.93204,-0.16855 4.13934,-0.202149 1.24181,-0.06803 2.56982,-0.101225 3.98409,-0.101225 1.34528,0 2.5871,0.0335 3.72541,0.101225 1.13827,0.0335 2.39735,0.101526 3.77713,0.202149 1.37978,0.101225 2.53536,0.168551 3.46667,0.20215 0.10341,-0.269708 0.15516,-0.758546 0.15516,-1.466422 0,-0.707973 -0.12089,-1.196733 -0.36223,-1.466427 -1.17275,0 -2.75954,-0.1348676 -4.76019,-0.4045582 -2.00069,-0.3033388 -3.139,-0.7753967 -3.41494,-1.4158252 -0.27598,-0.7079773 -0.41391,-1.752951 -0.41391,-3.1351027 0,-0.1348517 0.0692,-2.8991136 0.20689,-8.2928057 0.17253,-5.4274291 0.36209,-12.3549562 0.56915,-20.7826292 0.24133,-8.46137 0.43119,-15.928258 0.56917,-22.400701 l 0.12424,0.288235 c -0.0512,-0.296615 -0.0992,-0.578939 -0.11897,-1.021424 -0.35773,-0.539017 -0.70198,-1.096959 -0.78125,-1.597891 -0.0117,-0.07096 -0.04,-0.221401 -0.0571,-0.308443 -0.54049,-0.64814 -1.01927,-1.238226 -1.21593,-2.189526 -0.0601,-0.289518 -0.25035,-0.848048 -0.3415,-1.213579 -0.15211,-0.292773 -0.31364,-0.581996 -0.46052,-0.874766 -0.0742,-0.146593 -0.057,-0.315839 -0.0312,-0.485389 -0.81473,-0.0078 -1.68369,-0.0078 -2.34391,-0.03057 -1.00039,-0.06801 -2.12142,-0.134852 -3.36322,-0.202169 -1.20734,-0.101237 -2.41461,-0.185125 -3.62194,-0.252947 z m 18.07336,0.136414 c -0.001,-0.01089 -0.006,0.03156 -0.006,0.03057 0.001,0.0026 0.002,0.0078 0.006,0.01089 -0.001,-0.01279 0.001,-0.02762 0,-0.04043 z m -7.59567,2.872127 c 0.0451,0.185409 0.0854,0.372617 0.14985,0.546109 0.12376,0.07395 0.25885,0.134867 0.38807,0.20218 -0.18209,-0.248018 -0.37691,-0.48519 -0.53812,-0.74839 z"
       inkscape:connector-curvature="0"
       inkscape:export-filename="C:\Users\ppony\OneDrive\デスクトップ\portfolio\image\myk_logo.png"
       inkscape:export-xdpi="27.834101"
       inkscape:export-ydpi="27.834101" />
    <path
       id="text821-7"
       style="font-style:normal;font-variant:normal;font-weight:normal;font-stretch:normal;font-size:10.5833px;line-height:1.25;font-family:'851MkPOP';-inkscape-font-specification:'851MkPOP';font-variant-ligatures:normal;font-variant-caps:normal;font-variant-numeric:normal;font-feature-settings:normal;text-align:start;letter-spacing:0px;word-spacing:0px;writing-mode:lr-tb;text-orientation:upright;text-anchor:start;fill:#000000;fill-opacity:1;stroke:none;stroke-width:2.61891"
       d="m 179.17479,-55.229308 c -1.20734,0.06802 -2.41465,0.156342 -3.62193,0.257878 -1.24183,0.06802 -2.36283,0.129707 -3.36318,0.197248 -0.50865,0.0177 -1.16787,0.02564 -1.80584,0.03055 -0.0306,0.04142 -0.0611,0.07196 -0.10855,0.111294 -0.006,0.0023 -0.0117,0.0026 -0.0174,0.0052 -0.0199,0.05324 -0.0421,0.105569 -0.0673,0.156644 -0.0117,0.03844 -0.0351,0.143703 -0.0361,0.146591 -0.12312,0.317714 -0.20753,0.462028 -0.36734,0.65228 -0.0235,0.327764 -0.1034,0.646069 -0.23289,0.955695 -0.0491,0.168078 -0.10691,0.334075 -0.16056,0.50057 -0.0637,0.125289 -0.36578,0.791666 -0.58987,0.970877 -0.0439,0.03549 -0.027,0.0177 -0.0673,0.05027 -0.002,0.0052 -0.006,0.0335 -0.0117,0.03549 -0.15034,0.263007 -0.26502,0.553802 -0.47599,0.773627 -0.14634,0.152493 -0.24071,0.184344 -0.35704,0.278087 -0.0348,0.04337 -0.0619,0.08774 -0.0981,0.131505 -0.0175,0.08674 -0.0458,0.237176 -0.0564,0.308449 -0.0795,0.500963 -0.42348,1.058915 -0.78133,1.597889 -0.0198,0.442607 -0.0679,0.724929 -0.11911,1.021428 l 0.12456,-0.288239 c 2.79934,-1.823007 1.91306,12.242491 2.09034,18.719516 0.6617,-1.900506 1.55242,-2.504623 2.21452,0.470308 0.0306,0.134867 0.0306,0.248313 0.0467,0.374193 -0.11833,-6.869072 -0.15243,-14.888823 0.006,-19.69036 0.0128,-0.372322 -0.006,-1.032233 0.0992,-1.391166 0.2373,-0.801621 0.49148,-1.480321 1.03962,-1.905744 0.53323,-0.336736 1.46048,-0.61699 2.57675,-0.874765 1.86269,-0.438369 3.24249,-0.657405 4.13931,-0.657405 0.10306,0 0.15561,-0.455122 0.15561,-1.365269 0,-0.943867 -0.0522,-1.46626 -0.15561,-1.567549 z m -18.07336,0.136429 c -0.001,0.01278 0.001,0.0276 0,0.04043 0.002,-0.0027 0.002,-0.0078 0.006,-0.01089 0,9.85e-4 -0.002,-0.04139 -0.006,-0.03054 z m 10.25001,28.858016 c -0.0343,0.505793 -0.0703,1.017958 0.0361,1.643371 -2e-4,-0.496821 -0.0306,-1.123948 -0.0361,-1.643371 z m -51.63288,38.146934 c -0.20603,0.01769 -0.4302,0.05717 -0.63126,0.08573 0.16664,0.0079 0.42979,0.02555 0.58466,0.03079 0.0217,-0.01769 0.0346,-0.08283 0.0518,-0.111278 z"
       inkscape:connector-curvature="0"
       sodipodi:nodetypes="ccccccccccccccccccccccccccccssccccccccccccccc"
       inkscape:export-filename="C:\Users\ppony\OneDrive\デスクトップ\portfolio\image\myk_logo.png"
       inkscape:export-xdpi="27.834101"
       inkscape:export-ydpi="27.834101" />
    <path
       style="fill:none;stroke:#000000;stroke-width:2.61891px;stroke-linecap:butt;stroke-linejoin:miter;stroke-opacity:1"
       d="m 121.16017,-52.975837 24.99423,29.005336 25.1836,-29.946452"
       id="path922"
       inkscape:connector-curvature="0"
       sodipodi:nodetypes="ccc"
       inkscape:export-filename="C:\Users\ppony\OneDrive\デスクトップ\portfolio\image\myk_logo.png"
       inkscape:export-xdpi="27.834101"
       inkscape:export-ydpi="27.834101" />
    <path
       id="text821-6"
       style="font-style:normal;font-variant:normal;font-weight:normal;font-stretch:normal;font-size:10.5833px;line-height:1.25;font-family:'851MkPOP';-inkscape-font-specification:'851MkPOP';font-variant-ligatures:normal;font-variant-caps:normal;font-variant-numeric:normal;font-feature-settings:normal;text-align:start;letter-spacing:0px;word-spacing:0px;writing-mode:lr-tb;text-orientation:upright;text-anchor:start;fill:#000000;fill-opacity:1;stroke:none;stroke-width:2.34621"
       d="m 224.64523,16.887843 c -0.99925,0.06012 -2.19767,0.156928 -3.60117,0.288241 -1.40349,0.131807 -2.65312,0.230673 -3.74617,0.293253 -1.12314,0.09367 -2.33,0.159021 -3.61152,0.197269 -1.21889,0.03645 -2.34014,0.03844 -3.37356,0.01089 -1.03226,0.0015 -2.17735,-0.02358 -3.43044,-0.0759 -1.25314,-0.05223 -2.30103,-0.08085 -3.1459,-0.08573 -0.0903,0.241315 -0.12249,0.678203 -0.10341,1.304616 0.0195,0.626453 0.14634,1.05228 0.37258,1.284357 1.06267,-0.03274 2.50498,0.04338 4.32557,0.227594 1.82161,0.214133 2.86681,0.603781 3.13552,1.16302 0.0703,0.163148 0.11497,0.401698 0.17035,0.606837 0.22044,-0.180994 0.4689,-0.355068 0.78136,-0.525905 0.0306,-0.01769 0.0818,-0.0079 0.11895,-0.02064 0.04,-0.190818 9.9e-4,-0.336144 -0.17079,-0.409583 0.0703,0.01089 0.14841,0.01769 0.22244,0.03077 0.0196,0.0052 0.0523,0.01769 0.0619,0.02064 0.30659,0.0052 0.61257,-0.01089 0.92097,-0.01089 0.04,-0.01278 0.0715,-0.04437 0.1138,-0.05521 0.27619,-0.07885 0.57159,-0.08376 0.85891,-0.126378 0.28534,0.0887 0.56939,0.173984 0.85377,0.262894 0.0306,0.0014 0.0577,0.0079 0.0885,0.0098 -0.0398,-0.02064 -0.0379,-0.02752 -0.0885,-0.05521 -0.04,-0.02062 0.0505,0.03274 0.10341,0.05521 0.002,-7.9e-5 0.006,-1.58e-4 0.0117,0 0.11498,0.0052 0.23122,-0.0014 0.34666,0.01089 0.08,0.0098 0.22477,-0.04732 0.23829,0.03079 0.08,-0.0019 0.16123,-0.0079 0.24308,-0.0098 -0.16426,0.0098 -0.15515,0.02981 -0.23764,0.04041 0.006,0.06209 0.0197,0.12499 0.0306,0.187218 0,0 0.006,0 0.006,0 0.56198,-0.310412 1.27091,-0.706693 1.34527,-0.768596 2.25904,-0.994172 4.83064,-1.036008 7.23865,-1.279323 0.14298,-0.392531 0.20626,-0.905718 0.18623,-1.532152 -0.05,-0.595693 -0.13976,-0.946333 -0.2691,-1.061872 z m -9.14272,4.389152 c -0.002,6.8e-5 -0.006,1.28e-4 -0.0117,0 0.0397,0.02064 0.0529,0.03648 0.0727,0.05026 0.006,0.0019 0.0117,0.0025 0.0196,0.0052 0.006,-3.87e-4 0.0117,3.93e-4 0.0196,0 -0.05,-0.02652 -0.0535,-0.03176 -0.10341,-0.05521 z m 0.63127,0.262928 c -0.0437,0.02357 -0.0592,0.03449 -0.10855,0.06012 0.0597,0.0493 0.15818,0.123033 0.11912,0.09067 -0.0196,-0.01278 -0.0175,-0.0025 -0.027,-0.01578 -0.0397,-0.02358 -0.0627,-0.05026 -0.0932,-0.0759 0,0 -0.006,0 -0.006,0 -1.09242,0.608117 -2.22254,1.293616 -2.23009,1.709114 0.92818,-0.499387 2.3924,-1.297585 2.36979,-1.60798 -0.006,-0.05521 -0.0175,-0.106165 -0.027,-0.161871 z m -2.34394,1.769795 c -0.74292,0.399432 -1.17361,0.625072 0.006,0.141653 -0.04,-0.03547 -0.006,-0.09367 -0.006,-0.141653 z m 2.92859,-1.006255 v 0.0052 z m -9.58772,54.525283 c 0.001,0.01279 -0.002,0.02555 0,0.03548 0.001,-0.0023 0.006,-0.02062 0.006,-0.02062 -0.001,-0.0021 -0.002,-0.01278 -0.006,-0.01582 z"
       inkscape:connector-curvature="0"
       inkscape:export-filename="C:\Users\ppony\OneDrive\デスクトップ\portfolio\image\myk_logo.png"
       inkscape:export-xdpi="27.834101"
       inkscape:export-ydpi="27.834101" />
    <path
       id="path993"
       style="fill:#000000;stroke:#000000;stroke-width:2.34621px;stroke-linecap:butt;stroke-linejoin:miter;stroke-opacity:1"
       d="m 215.82328,19.330183 c 10e-4,0.174806 -1.7902,0.644887 -3.02685,2.533371 -0.28399,0.433834 0.44911,-0.21312 -1.27289,2.41199 -1.27552,1.944474 -3.53703,4.693764 -6.28655,7.857961 4.32219,-4.707308 8.30844,-8.989446 11.32103,-12.080224 -1.18614,0.253431 1.61649,-0.284576 -0.73474,-0.723058 z m -10.58629,12.803322 c -4.26264,4.642393 -8.88482,9.767507 -13.70119,15.169775 5.05337,-5.503389 9.88188,-10.774445 13.70119,-15.169775 z M 191.5358,47.30328 c -7.1717,7.810368 -14.64342,15.98805 -19.7394,22.501863 6.13445,-7.140115 13.01434,-14.958676 19.7394,-22.501863 z"
       inkscape:connector-curvature="0"
       inkscape:export-filename="C:\Users\ppony\OneDrive\デスクトップ\portfolio\image\myk_logo.png"
       inkscape:export-xdpi="27.834101"
       inkscape:export-ydpi="27.834101" />
    <path
       id="text821-2"
       style="font-style:normal;font-variant:normal;font-weight:normal;font-stretch:normal;font-size:10.5833px;line-height:1.25;font-family:'851MkPOP';-inkscape-font-specification:'851MkPOP';font-variant-ligatures:normal;font-variant-caps:normal;font-variant-numeric:normal;font-feature-settings:normal;text-align:start;letter-spacing:0px;word-spacing:0px;writing-mode:lr-tb;text-orientation:upright;text-anchor:start;fill:#000000;fill-opacity:1;stroke:none;stroke-width:2.52166"
       d="m 182.83158,50.608463 c -0.001,-0.01 -0.006,0.0298 -0.006,0.02882 0.001,0.0023 0.002,0.0073 0.006,0.01 -0.001,-0.01181 0.002,-0.02555 0,-0.03746 z m -9.58689,51.503707 c -1.84214,0.41146 -0.005,2.25718 -1.77327,1.91396 -0.0306,0.30066 0.0117,2.9822 -1.24329,4.58792 -0.41392,0.53132 -2.14111,0.76584 -4.17627,1.07827 -2.00071,0.28133 -3.57017,0.42191 -4.70845,0.42191 -0.17253,0.40633 -0.25897,0.93766 -0.25897,1.59396 0.034,0.62507 0.12153,1.00011 0.25897,1.12514 1.10377,-0.0318 2.43181,-0.0937 3.98403,-0.18741 1.55228,-0.0937 2.93205,-0.15625 4.13936,-0.18751 1.24181,-0.0631 2.5698,-0.0936 3.98411,-0.0936 1.34523,0 2.58704,0.0318 3.72536,0.0936 1.13831,0.0318 2.39734,0.0937 3.77714,0.18751 1.37978,0.0937 2.53535,0.15612 3.46671,0.18741 0.1034,-0.25 0.15513,-0.70325 0.15513,-1.35954 0,-0.65642 -0.12104,-1.10951 -0.36213,-1.35956 -1.17281,0 -2.75953,-0.12501 -4.7602,-0.37508 -2.00069,-0.28124 -2.49361,-0.32106 -3.62405,-1.10431 -1.94393,-1.01548 -2.37824,-5.39505 -1.7977,-6.74518 z m 50.96976,10.61804 c 0.0195,0.0265 0.0306,0.0857 0.05,0.10322 0.15514,-0.005 0.41753,-0.0216 0.58473,-0.0288 -0.20146,-0.0265 -0.42552,-0.0591 -0.63076,-0.0749 z"
       inkscape:connector-curvature="0"
       sodipodi:nodetypes="ccccccccccccccscccscccccccccc"
       inkscape:export-filename="C:\Users\ppony\OneDrive\デスクトップ\portfolio\image\myk_logo.png"
       inkscape:export-xdpi="27.834101"
       inkscape:export-ydpi="27.834101" />
    <path
       id="text821-71"
       style="font-style:normal;font-variant:normal;font-weight:normal;font-stretch:normal;font-size:10.5833px;line-height:1.25;font-family:'851MkPOP';-inkscape-font-specification:'851MkPOP';font-variant-ligatures:normal;font-variant-caps:normal;font-variant-numeric:normal;font-feature-settings:normal;text-align:start;letter-spacing:0px;word-spacing:0px;writing-mode:lr-tb;text-orientation:upright;text-anchor:start;fill:#000000;fill-opacity:1;stroke:none;stroke-width:2.37434"
       d="m 211.45395,57.601275 c -0.002,0.01089 0.001,0.0226 0,0.03351 0.002,-0.0021 0.002,-0.0064 0.006,-0.0088 -5e-4,8.21e-4 -0.006,-0.03448 -0.006,-0.02455 z m 7.39382,4.833775 c 0.0698,-0.10777 -0.16603,0.208503 -0.24815,0.311786 0.0196,-0.02455 0.0597,-0.04731 0.08,-0.07001 0.0595,-0.07788 0.11544,-0.160494 0.17101,-0.240989 z M 217.46634,78.283 c 0.002,0.187316 0.0117,0.335061 0.0196,0.523736 0.0117,-0.0966 0.0195,-0.194292 0.0402,-0.290927 -0.0196,-0.07787 -0.0402,-0.15516 -0.05,-0.232736 z m 1.13823,28.73248 c -0.21645,0.0158 0.799,0.42812 0.61578,0.30343 -0.10002,-0.066 -0.20929,-0.11493 -0.31542,-0.17045 -0.05,-0.0206 -0.0697,-0.0226 -0.0998,-0.0335 -0.0601,-0.0345 -0.1244,-0.066 -0.18625,-0.0998 -0.006,1.6e-4 -0.0117,0 -0.0196,0 z m -0.73994,0.79383 c 0.45457,0.8237 0.35948,1.03109 -0.0402,1.48594 -0.28329,0.52393 -1.71905,0.52294 -3.72307,0.7543 -2.0036,0.20366 -3.59263,0.30144 -4.76537,0.29093 -0.24411,0.21944 -0.36949,0.61936 -0.3775,1.20116 -0.006,0.5818 0.04,0.98686 0.13946,1.20948 0.93115,-0.0196 2.08578,-0.067 3.4666,-0.13731 1.38089,-0.07 2.63857,-0.1162 3.7772,-0.13299 1.13901,-0.0463 2.38527,-0.0621 3.73057,-0.0503 1.41411,0.0128 2.73796,0.0542 3.97893,0.12038 1.20679,0.0384 2.58837,0.10636 4.1393,0.20365 1.55093,0.0966 2.87553,0.16252 3.97892,0.19944 0.13945,-0.10964 0.23258,-0.43965 0.27415,-0.99335 0.006,-0.5818 -0.0698,-1.05554 -0.238,-1.41731 -1.13825,-0.0109 -2.70621,-0.14837 -4.70332,-0.41569 -2.03125,-0.29522 -2.98726,-0.6573 -3.39467,-1.13194 -0.20624,-0.24289 -0.6428,-0.56948 -0.79598,-0.90463 -0.792,0.004 -1.58379,-0.009 -2.37502,0.0168 -0.66881,-0.009 -2.28254,0.0255 -3.07334,-0.29928 z m -48.5595,4.49297 c -0.20623,0.0128 -0.42981,0.0453 -0.63117,0.067 0.16667,0.006 0.42975,0.0196 0.58462,0.0246 0.0196,-0.0158 0.0351,-0.068 0.0524,-0.0917 z"
       inkscape:connector-curvature="0"
       sodipodi:nodetypes="cccsccccccccccccccccccccccccccccccccccccccccccc"
       inkscape:export-filename="C:\Users\ppony\OneDrive\デスクトップ\portfolio\image\myk_logo.png"
       inkscape:export-xdpi="27.834101"
       inkscape:export-ydpi="27.834101" />
    <path
       style="fill:#000000;stroke:#000000;stroke-width:2.37807;stroke-linecap:butt;stroke-linejoin:miter;stroke-miterlimit:4;stroke-dasharray:none;stroke-opacity:1"
       d="m 183.88587,55.970638 35.01906,51.177872 2.39601,0.45019 -37.41507,-51.628023"
       id="path1065"
       inkscape:connector-curvature="0"
       sodipodi:nodetypes="cccc"
       inkscape:export-filename="C:\Users\ppony\OneDrive\デスクトップ\portfolio\image\myk_logo.png"
       inkscape:export-xdpi="27.834101"
       inkscape:export-ydpi="27.834101" />
    <path
       id="path1153"
       style="fill:#000000;stroke:#000000;stroke-width:1.53423;stroke-linecap:butt;stroke-linejoin:miter;stroke-miterlimit:4;stroke-dasharray:none;stroke-opacity:1"
       d="m 215.46863,-4.3268922 -6.07644,2.346241 c 11.58928,-8.2232808 -33.14111,37.7882072 -55.28729,59.9652602 0.60619,0.617483 1.03091,1.466244 3.45674,-0.64508 13.44563,-15.609536 31.58659,-35.603355 52.3712,-57.21214578 0.2032,-0.21125313 0.40658,-0.4226971 0.61079,-0.63414341 2.19758,-2.03391271 3.46646,-2.79724631 4.925,-3.82013201 z"
       inkscape:connector-curvature="0"
       sodipodi:nodetypes="ccccscc"
       inkscape:export-filename="C:\Users\ppony\OneDrive\デスクトップ\portfolio\image\myk_logo.png"
       inkscape:export-xdpi="27.834101"
       inkscape:export-ydpi="27.834101" />
    <path
       id="text821-6-4"
       style="font-style:normal;font-variant:normal;font-weight:normal;font-stretch:normal;font-size:10.5833px;line-height:1.25;font-family:'851MkPOP';-inkscape-font-specification:'851MkPOP';font-variant-ligatures:normal;font-variant-caps:normal;font-variant-numeric:normal;font-feature-settings:normal;text-align:start;letter-spacing:0px;word-spacing:0px;writing-mode:lr-tb;text-orientation:upright;text-anchor:start;fill:#000000;fill-opacity:1;stroke:none;stroke-width:1.97159"
       d="m 219.70013,-5.5271747 c -0.79696,0.026541 -1.75541,0.076873 -2.8744,0.1560278 -1.12057,0.07884 -2.11678,0.1325959 -2.98868,0.1589336 -0.89712,0.053259 -1.8575,0.074941 -2.87941,0.073911 -0.97122,-2.681e-4 -1.86762,-0.022596 -2.69039,-0.074941 -0.822,-0.02653 -1.73125,-0.079835 -2.72846,-0.1585344 -0.99725,-0.078851 -1.83196,-0.132405 -2.50499,-0.1598093 -0.0698,0.2114498 -0.10819,0.598059 -0.10305,1.1534878 0.006,0.5554733 0.0902,0.9350918 0.26843,1.1467372 0.84802,-8.98e-4 1.99538,0.1039061 3.442,0.3157481 1.44671,0.2380744 2.90276,0.9185336 2.82498,1.2764518 -0.0196,0.090665 -0.1124,0.3297389 -0.13225,0.4129375 -0.25015,1.05624462 -0.40855,1.07378983 -0.63081,1.1994735 0.17928,-0.15427629 0.91713,-1.5315387 1.17185,-1.6745908 0.0306,-0.016754 0.73293,-0.7064948 0.10001,-0.019645 0.18212,-0.2645023 0.05,-0.322726 0.05,-0.3354581 0.0196,0.00398 0.0402,0.020617 0.05,0.023579 0.24509,0.010888 0.48961,0.00784 0.73495,0.016754 0.0306,-0.010888 0.05,-0.041434 0.0904,-0.050261 0.22141,-0.063081 0.45457,-0.059147 0.68487,-0.087738 0.22617,0.086778 0.45057,0.1742473 0.67482,0.2608307 0.0306,0.00129 0.05,0.0082 0.0698,0.00995 -0.0306,-0.016754 -0.04,-0.030768 -0.0595,-0.055214 -0.0306,-0.019646 0.04,0.028824 0.0698,0.051256 l -0.006,0.00492 c 0.0306,0.016754 0.0402,0.031751 0.05,0.044361 0.005,0.00176 0.006,-5.796e-4 0.0197,0.00129 0.005,-2.318e-4 0.002,0.00129 0.0195,9.296e-4 -0.0306,-0.022596 -0.0402,-0.033496 -0.0597,-0.050261 0.0903,0.00855 0.18623,0.00421 0.27921,0.017702 0.0595,0.00913 0.17908,-0.031751 0.18822,0.03846 0.0597,0.00152 0.13048,-0.00211 0.19428,-0.00304 -0.13112,0.00457 -0.1244,0.020629 -0.19232,0.028824 0.006,0.056174 0.0117,0.1079453 0.0196,0.1633147 0.45453,-0.2602418 1.03028,-0.5866253 1.09099,-0.6395606 1.81989,-0.8204509 3.87052,-0.7913677 5.79376,-0.9423869 0.12153,-0.3439322 0.17907,-0.7960028 0.17515,-1.3514504 -0.0306,-0.5287656 -0.0903,-0.8431229 -0.18929,-0.9492886 z m -6.87134,3.8826385 c -0.0397,0.020629 -0.05,0.033531 -0.08,0.056174 0.05,0.046316 -2.0583,-1.9661917 -1.21373,-1.2276247 -0.40755,-0.7914683 1.24381,1.2566576 1.21373,1.2276247 l -0.005,-3.184e-4 c -0.88314,0.5095415 -1.7975,1.09198946 -1.8119,1.45983818 0.74995,-0.41776815 3.40157,-2.68404188 3.3899,-2.95960328 -0.006,-0.051256 -1.47867,1.4958243 -1.48949,1.444658 z m 0.45058,0.69742482 -3.1e-4,0.005386 z m -2.35522,0.81226952 c -0.59978,0.33407543 -0.94626,0.52758198 -0.002,0.13161597 -0.0402,-0.03175137 -0.002,-0.08773774 0.002,-0.13161597 z"
       inkscape:connector-curvature="0"
       sodipodi:nodetypes="ccccccccccsscccccccccccccccccccccccccccccccccccccccccc"
       inkscape:export-filename="C:\Users\ppony\OneDrive\デスクトップ\portfolio\image\myk_logo.png"
       inkscape:export-xdpi="27.834101"
       inkscape:export-ydpi="27.834101" />
    <path
       id="text821-6-9"
       style="font-style:normal;font-variant:normal;font-weight:normal;font-stretch:normal;font-size:10.5833px;line-height:1.25;font-family:'851MkPOP';-inkscape-font-specification:'851MkPOP';font-variant-ligatures:normal;font-variant-caps:normal;font-variant-numeric:normal;font-feature-settings:normal;text-align:start;letter-spacing:0px;word-spacing:0px;writing-mode:lr-tb;text-orientation:upright;text-anchor:start;fill:#000000;fill-opacity:1;stroke:none;stroke-width:2.00629"
       d="m 176.92532,-5.8983519 c -0.0862,0.1265676 -0.13591,0.5080617 -0.15513,1.1427706 10e-4,0.6667705 0.0518,1.2050147 0.16057,1.6181103 1.66106,0.188779 3.43605,0.1666853 5.01375,1.1579812 0.053,0.0641 0.55219,0.4594664 0.94688,0.7737277 0.006,-0.067027 0.0117,-0.1328008 0.0174,-0.1972671 -0.057,-0.010888 -0.047,-0.035474 -0.16057,-0.040427 0.13177,0.010888 0.20453,-0.020617 0.32592,-0.035474 0.027,-0.00539 0.0547,-0.00269 0.0831,-0.00539 0.47497,-0.8083264 0.43303,-1.0297664 0.41908,-1.0113045 -0.006,0.012785 1.48544,-0.1034963 0.39842,0.6776154 0.19887,0.03647 0.39791,0.030768 0.58985,0.1061657 0.027,0.012785 0.0512,0.046316 0.0782,0.061114 0.21212,-0.010888 0.42606,-0.00539 0.63641,-0.020617 0.006,-0.00234 0.027,-0.015817 0.0413,-0.020641 0.05,-0.015805 0.10153,-0.034479 0.15016,-0.046316 -0.11703,0.082809 -0.13592,0.2480283 -0.1034,0.4500031 0.0235,0.012785 0.0562,-0.00539 0.0782,0.015817 0.21872,0.1727253 0.87879,1.31568557 1.03481,1.50178816 0.0351,-0.21973187 -0.50411,-1.27062486 -0.46045,-1.44617996 0.17014,-0.6026941 0.96299,-1.2162553 2.20934,-1.4967702 1.24651,-0.24852 2.23375,-0.3676895 2.96482,-0.3641397 0.14906,-0.2532687 0.22483,-0.7088622 0.22243,-1.3753938 -0.002,-0.6663748 -0.0338,-1.1323941 -0.1034,-1.3855304 -0.58046,0.031751 -1.30299,0.090665 -2.16279,0.1819814 -0.85991,0.091648 -1.63954,0.1537717 -2.34909,0.1819803 -0.7095,0.060131 -1.4846,0.084741 -2.32313,0.080854 -0.88176,-0.00269 -1.70944,-0.034479 -2.4836,-0.101225 -0.75276,-0.03551 -1.61404,-0.1079453 -2.58196,-0.207324 -0.96592,-0.099469 -1.791,-0.163104 -2.47842,-0.1972683 z m 7.0472,4.0806688 c -0.19406,0.1030047 -0.39148,0.204835 -0.58462,0.3084461 -0.0197,0.00269 -0.0432,0.00784 -0.0618,0.010888 h -0.006 c -0.0235,0.020617 -0.027,0.040427 -0.041,0.056197 -0.006,0.00269 -0.006,0.00234 -0.0174,0.00539 -0.006,-1.861e-4 -0.006,1.3e-4 -0.0175,0 0.0338,-0.028824 0.0338,-0.036469 0.0618,-0.061114 -0.0512,0.00539 -0.10375,0.012785 -0.15562,0.015805 -0.0453,0.076896 -0.0464,0.096647 -0.10341,0.1872172 z m -0.92096,0.5208747 -0.16055,0.090653 c 0.095,0.1943882 2.75235,2.857794 0.0782,0.066055 0.0571,-0.084787 0.0354,-0.080854 0.0831,-0.1568333 z m -0.54329,0.92533339 v 0.005386 z m 2.0386,0.98103178 c 0.002,0.0522516 0.027,0.11336596 0,0.15167365 0.82237,0.47986948 0.52066,0.25117298 0,-0.15167365 z"
       inkscape:connector-curvature="0"
       inkscape:export-filename="C:\Users\ppony\OneDrive\デスクトップ\portfolio\image\myk_logo.png"
       inkscape:export-xdpi="27.834101"
       inkscape:export-ydpi="27.834101" />
    <path
       style="fill:#000000;stroke:#000000;stroke-width:0.98982;stroke-linecap:butt;stroke-linejoin:miter;stroke-miterlimit:4;stroke-dasharray:none;stroke-opacity:1"
       d="m 183.67915,-3.4956691 c 0.83895,-0.6545417 -0.0589,1.0060793 -0.94222,0.7918653 2.57362,2.53775264 -0.22884,0.5491676 0.18321,0.9010821 0.20581,0.1761709 1.44519,1.04301598 2.22131,2.60330064 2.78052,5.58971166 9.45369,15.48748206 9.47187,15.47735206 0.82645,1.577221 -5.99927,-10.1913247 -8.62832,-16.0551485 -1.06389,-2.3729066 -0.027,-2.8855706 -0.2309,-3.2644866 -1.18209,-2.1992763 -3.39362,-0.2869647 -2.07508,-0.4540422 z"
       id="path993-8"
       inkscape:connector-curvature="0"
       sodipodi:nodetypes="ccsscsscc"
       inkscape:export-filename="C:\Users\ppony\OneDrive\デスクトップ\portfolio\image\myk_logo.png"
       inkscape:export-xdpi="27.834101"
       inkscape:export-ydpi="27.834101" />
    <path
       style="fill:none;stroke:#000000;stroke-width:3.61285;stroke-linecap:butt;stroke-linejoin:miter;stroke-miterlimit:4;stroke-dasharray:none;stroke-opacity:1"
       d="m 169.50649,-48.111477 3.32979,156.567797"
       id="path1300"
       inkscape:connector-curvature="0"
       sodipodi:nodetypes="cc"
       inkscape:export-filename="C:\Users\ppony\OneDrive\デスクトップ\portfolio\image\myk_logo.png"
       inkscape:export-xdpi="27.834101"
       inkscape:export-ydpi="27.834101" />
    <path
       style="fill:#000000;stroke:#000000;stroke-width:0.643384;stroke-linecap:butt;stroke-linejoin:miter;stroke-miterlimit:4;stroke-dasharray:none;stroke-opacity:1"
       d="m 159.03603,52.957377 c -2.0559,0.662031 -2.63207,1.454509 -6.97304,0.974518 -2.30634,-0.255003 -3.90343,0.696441 -3.90049,2.643954 0.005,2.293336 5.25723,3.336358 7.93201,2.574621 2.56007,-0.729068 5.04894,-6.06413 5.04894,-6.06413"
       id="path1302"
       inkscape:connector-curvature="0"
       sodipodi:nodetypes="cssac"
       inkscape:export-filename="C:\Users\ppony\OneDrive\デスクトップ\portfolio\image\myk_logo.png"
       inkscape:export-xdpi="27.834101"
       inkscape:export-ydpi="27.834101" />
    <path
       style="fill:none;stroke:#000000;stroke-width:3.40498;stroke-linecap:round;stroke-linejoin:round;stroke-miterlimit:4;stroke-dasharray:none;stroke-opacity:1"
       d="m 141.28351,-79.642027 -50.336366,20.576176 0.01133,161.761081"
       id="path1311"
       inkscape:connector-curvature="0"
       sodipodi:nodetypes="ccc"
       inkscape:export-filename="C:\Users\ppony\OneDrive\デスクトップ\portfolio\image\myk_logo.png"
       inkscape:export-xdpi="27.834101"
       inkscape:export-ydpi="27.834101" />
    <path
       style="fill:none;stroke:#000000;stroke-width:3.40498;stroke-linecap:round;stroke-linejoin:miter;stroke-miterlimit:4;stroke-dasharray:none;stroke-opacity:1"
       d="M 141.905,123.52564 90.958155,102.69523"
       id="path1311-4"
       inkscape:connector-curvature="0"
       sodipodi:nodetypes="cc"
       inkscape:export-filename="C:\Users\ppony\OneDrive\デスクトップ\portfolio\image\myk_logo.png"
       inkscape:export-xdpi="27.834101"
       inkscape:export-ydpi="27.834101" />
    <path
       style="fill:none;stroke:#000000;stroke-width:2.42717;stroke-linecap:round;stroke-linejoin:miter;stroke-miterlimit:4;stroke-dasharray:none;stroke-opacity:1"
       d="m 135.1157,-65.488622 -17.44639,-4.445646 6.76493,-13.04701"
       id="path1382"
       inkscape:connector-curvature="0"
       sodipodi:nodetypes="ccc"
       inkscape:export-filename="C:\Users\ppony\OneDrive\デスクトップ\portfolio\image\myk_logo.png"
       inkscape:export-xdpi="27.834101"
       inkscape:export-ydpi="27.834101" />
    <path
       style="fill:none;stroke:#000000;stroke-width:2.42717;stroke-linecap:round;stroke-linejoin:miter;stroke-miterlimit:4;stroke-dasharray:none;stroke-opacity:1"
       d="m 145.99825,-70.10652 -17.44637,-4.445638 6.7649,-13.047018"
       id="path1382-2"
       inkscape:connector-curvature="0"
       sodipodi:nodetypes="ccc"
       inkscape:export-filename="C:\Users\ppony\OneDrive\デスクトップ\portfolio\image\myk_logo.png"
       inkscape:export-xdpi="27.834101"
       inkscape:export-ydpi="27.834101" />
    <ellipse
       style="opacity:1;fill:#000000;fill-opacity:1;stroke:none;stroke-width:3.13017;stroke-linecap:round;stroke-linejoin:round;stroke-miterlimit:4;stroke-dasharray:none;stroke-dashoffset:0;stroke-opacity:1;paint-order:stroke fill markers"
       id="path1399"
       cx="143.68045"
       cy="-81.184494"
       rx="4.8637052"
       ry="4.8745589"
       inkscape:export-filename="C:\Users\ppony\OneDrive\デスクトップ\portfolio\image\myk_logo.png"
       inkscape:export-xdpi="27.834101"
       inkscape:export-ydpi="27.834101" />
    <path
       style="fill:none;stroke:#000000;stroke-width:3.40498;stroke-linecap:round;stroke-linejoin:round;stroke-miterlimit:4;stroke-dasharray:none;stroke-opacity:1"
       d="m 198.13382,143.16796 50.33634,-20.57618 -0.0196,-161.386014"
       id="path1311-5"
       inkscape:connector-curvature="0"
       sodipodi:nodetypes="ccc"
       inkscape:export-filename="C:\Users\ppony\OneDrive\デスクトップ\portfolio\image\myk_logo.png"
       inkscape:export-xdpi="27.834101"
       inkscape:export-ydpi="27.834101" />
    <path
       style="fill:none;stroke:#000000;stroke-width:3.40498;stroke-linecap:round;stroke-linejoin:miter;stroke-miterlimit:4;stroke-dasharray:none;stroke-opacity:1"
       d="m 198.11369,-59.370411 50.33645,20.576177"
       id="path1311-4-4"
       inkscape:connector-curvature="0"
       sodipodi:nodetypes="cc"
       inkscape:export-filename="C:\Users\ppony\OneDrive\デスクトップ\portfolio\image\myk_logo.png"
       inkscape:export-xdpi="27.834101"
       inkscape:export-ydpi="27.834101" />
    <path
       style="fill:none;stroke:#000000;stroke-width:2.42717;stroke-linecap:round;stroke-linejoin:miter;stroke-miterlimit:4;stroke-dasharray:none;stroke-opacity:1"
       d="m 204.30167,129.01455 17.44639,4.44566 -6.76496,13.047"
       id="path1382-7"
       inkscape:connector-curvature="0"
       sodipodi:nodetypes="ccc"
       inkscape:export-filename="C:\Users\ppony\OneDrive\デスクトップ\portfolio\image\myk_logo.png"
       inkscape:export-xdpi="27.834101"
       inkscape:export-ydpi="27.834101" />
    <path
       style="fill:none;stroke:#000000;stroke-width:2.42717;stroke-linecap:round;stroke-linejoin:miter;stroke-miterlimit:4;stroke-dasharray:none;stroke-opacity:1"
       d="m 193.41906,133.63245 17.44637,4.44564 -6.76491,13.04702"
       id="path1382-2-5"
       inkscape:connector-curvature="0"
       sodipodi:nodetypes="ccc"
       inkscape:export-filename="C:\Users\ppony\OneDrive\デスクトップ\portfolio\image\myk_logo.png"
       inkscape:export-xdpi="27.834101"
       inkscape:export-ydpi="27.834101" />
    <ellipse
       style="opacity:1;fill:#000000;fill-opacity:1;stroke:none;stroke-width:3.13017;stroke-linecap:round;stroke-linejoin:round;stroke-miterlimit:4;stroke-dasharray:none;stroke-dashoffset:0;stroke-opacity:1;paint-order:stroke fill markers"
       id="path1399-0"
       cx="-195.73685"
       cy="-144.71042"
       rx="4.8637052"
       ry="4.8745589"
       transform="scale(-1)"
       inkscape:export-filename="C:\Users\ppony\OneDrive\デスクトップ\portfolio\image\myk_logo.png"
       inkscape:export-xdpi="27.834101"
       inkscape:export-ydpi="27.834101" />
  </g>
</svg>
