<?xml version="1.0" encoding="UTF-8" standalone="no"?>
<!-- Created with Inkscape (http://www.inkscape.org/) -->

<svg
   xmlns:dc="http://purl.org/dc/elements/1.1/"
   xmlns:cc="http://creativecommons.org/ns#"
   xmlns:rdf="http://www.w3.org/1999/02/22-rdf-syntax-ns#"
   xmlns:svg="http://www.w3.org/2000/svg"
   xmlns="http://www.w3.org/2000/svg"
   xmlns:sodipodi="http://sodipodi.sourceforge.net/DTD/sodipodi-0.dtd"
   xmlns:inkscape="http://www.inkscape.org/namespaces/inkscape"
   width="100.54205mm"
   height="153.19753mm"
   viewBox="0 0 100.54205 153.19753"
   version="1.1"
   id="svg911"
   inkscape:version="0.92.4 (5da689c313, 2019-01-14)"
   sodipodi:docname="logo_w.svg">
  <defs
     id="defs905" />
  <sodipodi:namedview
     id="base"
     pagecolor="#ffffff"
     bordercolor="#666666"
     borderopacity="1.0"
     inkscape:pageopacity="0.0"
     inkscape:pageshadow="2"
     inkscape:zoom="0.98994949"
     inkscape:cx="-58.498914"
     inkscape:cy="324.61556"
     inkscape:document-units="mm"
     inkscape:current-layer="layer1"
     showgrid="false"
     inkscape:window-width="1920"
     inkscape:window-height="1017"
     inkscape:window-x="-8"
     inkscape:window-y="-8"
     inkscape:window-maximized="1" />
  <metadata
     id="metadata908">
    <rdf:RDF>
      <cc:Work
         rdf:about="">
        <dc:format>image/svg+xml</dc:format>
        <dc:type
           rdf:resource="http://purl.org/dc/dcmitype/StillImage" />
        <dc:title></dc:title>
      </cc:Work>
    </rdf:RDF>
  </metadata>
  <g
     inkscape:label="Layer 1"
     inkscape:groupmode="layer"
     id="layer1"
     transform="translate(-62.365878,-56.359565)">
    <path
       id="text821"
       style="font-style:normal;font-variant:normal;font-weight:normal;font-stretch:normal;font-size:10.58333302px;line-height:1.25;font-family:'851MkPOP';-inkscape-font-specification:'851MkPOP';font-variant-ligatures:normal;font-variant-caps:normal;font-variant-numeric:normal;font-feature-settings:normal;text-align:start;letter-spacing:0px;word-spacing:0px;writing-mode:lr-tb;text-orientation:upright;text-anchor:start;fill:#ffffff;fill-opacity:1;stroke:none;stroke-width:1.64964521"
       d="m 77.088701,78.300509 c -0.0647,0.06431 -0.0969,0.396199 -0.0969,0.995782 0,0.578174 0.0326,0.867298 0.0969,0.867298 0.56018,0 1.42198,0.139144 2.58542,0.417552 1.18498,0.27841 1.83136,0.588883 1.93906,0.931541 0.17235,0.471093 0.25855,1.327709 0.25855,2.569758 0,4.475652 -0.30164,14.711865 -0.90491,30.70857 -0.0647,1.49903 -0.32319,2.56976 -0.77561,3.21221 -0.25853,0.36407 -1.02339,0.65313 -2.29455,0.86728 -1.24963,0.19276 -2.22992,0.28912 -2.94092,0.28912 -0.10772,0.27841 -0.15833,0.64243 -0.15833,1.09217 0.0213,0.42825 0.0722,0.68525 0.15833,0.77092 0.68946,-0.0213 1.51894,-0.0644 2.48846,-0.12842 0.96952,-0.0643 1.83134,-0.10707 2.58542,-0.12841 0.77563,-0.0432 1.6051,-0.0643 2.48845,-0.0643 0.84025,0 1.61589,0.0213 2.32688,0.0643 0.71096,0.0213 1.49738,0.0645 2.35918,0.12841 0.86181,0.0643 1.58358,0.10708 2.165279,0.12842 0.0646,-0.17133 0.0969,-0.48186 0.0969,-0.93154 0,-0.44974 -0.0755,-0.76022 -0.22624,-0.93155 -0.7325,0 -1.72361,-0.0857 -2.97321,-0.25699 -1.24962,-0.1927 -1.9606,-0.49257 -2.13296,-0.8994 -0.17237,-0.44974 -0.25853,-1.11356 -0.25853,-1.99157 0,-0.0857 0.0432,-1.84166 0.12923,-5.26799 0.10776,-3.44777 0.22616,-7.84847 0.35549,-13.202138 0.15073,-5.375074 0.26932,-10.118402 0.3555,-14.230011 l 0.0776,0.183102 c -0.032,-0.188426 -0.062,-0.367771 -0.0743,-0.648859 -0.22344,-0.34241 -0.43846,-0.696841 -0.48798,-1.015058 -0.007,-0.04508 -0.0249,-0.140645 -0.0356,-0.195939 -0.33759,-0.411729 -0.63663,-0.78658 -0.75946,-1.390892 -0.0375,-0.183916 -0.15637,-0.538722 -0.21331,-0.770925 -0.095,-0.185983 -0.19589,-0.369711 -0.28763,-0.555694 -0.0463,-0.09312 -0.0356,-0.200635 -0.0195,-0.308342 -0.50887,-0.005 -1.05163,-0.005 -1.464,-0.01942 -0.62484,-0.0432 -1.32504,-0.08566 -2.10066,-0.128427 -0.75409,-0.06431 -1.50815,-0.1176 -2.26225,-0.160684 z m 11.28857,0.08666 c -7.68e-4,-0.0069 -0.004,0.02005 -0.004,0.01942 7.94e-4,0.0016 10e-4,0.005 0.004,0.0069 -8.47e-4,-0.0081 9.52e-4,-0.01754 0,-0.02568 z m -4.74424,1.824514 c 0.0281,0.117781 0.0533,0.236704 0.0936,0.346915 0.0773,0.04697 0.16168,0.08567 0.24239,0.128434 -0.11374,-0.157552 -0.23542,-0.308216 -0.33611,-0.475413 z"
       inkscape:connector-curvature="0"
       inkscape:export-filename="C:\Users\ppony\OneDrive\デスクトップ\portfolio\image\myk_logo.png"
       inkscape:export-xdpi="27.834101"
       inkscape:export-ydpi="27.834101" />
    <path
       id="text821-7"
       style="font-style:normal;font-variant:normal;font-weight:normal;font-stretch:normal;font-size:10.58333302px;line-height:1.25;font-family:'851MkPOP';-inkscape-font-specification:'851MkPOP';font-variant-ligatures:normal;font-variant-caps:normal;font-variant-numeric:normal;font-feature-settings:normal;text-align:start;letter-spacing:0px;word-spacing:0px;writing-mode:lr-tb;text-orientation:upright;text-anchor:start;fill:#ffffff;fill-opacity:1;stroke:none;stroke-width:1.64964521"
       d="m 118.55224,77.696621 c -0.7541,0.04321 -1.50819,0.09932 -2.26225,0.163817 -0.77565,0.04321 -1.47581,0.0824 -2.10063,0.125302 -0.3177,0.01125 -0.72945,0.01629 -1.12792,0.01941 -0.0191,0.02631 -0.0382,0.04571 -0.0678,0.0707 -0.004,0.0015 -0.007,0.0016 -0.0109,0.0033 -0.0123,0.03382 -0.0263,0.06706 -0.042,0.09951 -0.007,0.02442 -0.0219,0.09129 -0.0226,0.09312 -0.0769,0.201827 -0.12963,0.293503 -0.22944,0.41436 -0.0147,0.208211 -0.0646,0.410414 -0.14546,0.607104 -0.0307,0.10677 -0.0668,0.21222 -0.10029,0.317986 -0.0398,0.07959 -0.22847,0.502904 -0.36843,0.616748 -0.0274,0.02254 -0.0169,0.01125 -0.042,0.03194 -0.001,0.0033 -0.004,0.02128 -0.007,0.02254 -0.0939,0.167074 -0.16553,0.351802 -0.2973,0.491445 -0.0914,0.09687 -0.15035,0.117104 -0.223,0.176654 -0.0217,0.02755 -0.0387,0.05573 -0.0613,0.08354 -0.0109,0.0551 -0.0286,0.150665 -0.0353,0.195941 -0.0496,0.318236 -0.2645,0.672674 -0.48801,1.015057 -0.0123,0.281165 -0.0424,0.46051 -0.0744,0.648861 l 0.0778,-0.183103 c 1.74846,-1.158063 1.19489,7.777023 1.30562,11.891543 0.41329,-1.207294 0.96964,-1.591056 1.38318,0.298765 0.0191,0.08567 0.0191,0.157739 0.0292,0.237704 -0.0739,-4.363566 -0.0952,-9.458103 0.004,-12.508272 0.008,-0.236517 -0.004,-0.655724 0.062,-0.883736 0.14822,-0.509229 0.30698,-0.940372 0.64935,-1.210621 0.33306,-0.213911 0.91221,-0.391942 1.60943,-0.555693 1.16343,-0.278473 2.02525,-0.417616 2.5854,-0.417616 0.0644,0 0.0972,-0.289116 0.0972,-0.867285 0,-0.59959 -0.0326,-0.93144 -0.0972,-0.995783 z m -11.28857,0.08667 c -0.001,0.0081 7.9e-4,0.01753 0,0.02568 10e-4,-0.0017 10e-4,-0.005 0.004,-0.0069 0,6.35e-4 -10e-4,-0.02629 -0.004,-0.01941 z m 6.40213,18.33201 c -0.0215,0.321305 -0.0439,0.646658 0.0226,1.043948 -1.2e-4,-0.315603 -0.0191,-0.713983 -0.0226,-1.043948 z M 81.416051,120.34808 c -0.12868,0.0113 -0.2687,0.0363 -0.39428,0.0545 0.10409,0.005 0.26844,0.0162 0.36518,0.0195 0.0136,-0.0113 0.0216,-0.0526 0.0323,-0.0707 z"
       inkscape:connector-curvature="0"
       sodipodi:nodetypes="ccccccccccccccccccccccccccccssccccccccccccccc"
       inkscape:export-filename="C:\Users\ppony\OneDrive\デスクトップ\portfolio\image\myk_logo.png"
       inkscape:export-xdpi="27.834101"
       inkscape:export-ydpi="27.834101" />
    <path
       style="fill:none;stroke:#ffffff;stroke-width:1.64964521px;stroke-linecap:butt;stroke-linejoin:miter;stroke-opacity:1"
       d="M 82.316481,79.128136 97.9278,97.553732 113.6574,78.530293"
       id="path922"
       inkscape:connector-curvature="0"
       sodipodi:nodetypes="ccc"
       inkscape:export-filename="C:\Users\ppony\OneDrive\デスクトップ\portfolio\image\myk_logo.png"
       inkscape:export-xdpi="27.834101"
       inkscape:export-ydpi="27.834101" />
    <path
       id="text821-6"
       style="font-style:normal;font-variant:normal;font-weight:normal;font-stretch:normal;font-size:10.58333302px;line-height:1.25;font-family:'851MkPOP';-inkscape-font-specification:'851MkPOP';font-variant-ligatures:normal;font-variant-caps:normal;font-variant-numeric:normal;font-feature-settings:normal;text-align:start;letter-spacing:0px;word-spacing:0px;writing-mode:lr-tb;text-orientation:upright;text-anchor:start;fill:#ffffff;fill-opacity:1;stroke:none;stroke-width:1.47787857"
       d="m 146.95294,123.50893 c -0.62413,0.0382 -1.37266,0.0997 -2.24928,0.18311 -0.87661,0.0837 -1.65713,0.14653 -2.33984,0.18629 -0.70152,0.0595 -1.45532,0.10101 -2.25575,0.12531 -0.76132,0.0232 -1.46165,0.0244 -2.10711,0.007 -0.64476,0.001 -1.35997,-0.015 -2.14265,-0.0482 -0.78271,-0.0332 -1.43721,-0.0514 -1.96492,-0.0545 -0.0564,0.1533 -0.0765,0.43083 -0.0646,0.82876 0.0122,0.39795 0.0914,0.66846 0.23271,0.81588 0.66374,-0.0208 1.56461,0.0276 2.70174,0.14458 1.13777,0.13603 1.7906,0.38355 1.95844,0.73881 0.0439,0.10364 0.0718,0.25518 0.1064,0.38549 0.13768,-0.11498 0.29287,-0.22556 0.48803,-0.33408 0.0191,-0.0113 0.0511,-0.005 0.0743,-0.0131 0.0249,-0.12122 5.3e-4,-0.21354 -0.10668,-0.26019 0.0439,0.007 0.0927,0.0113 0.13894,0.0196 0.0122,0.003 0.0327,0.0112 0.0387,0.0131 0.1915,0.003 0.38261,-0.007 0.57523,-0.007 0.0249,-0.008 0.0447,-0.0282 0.0711,-0.0351 0.17251,-0.0501 0.35701,-0.0532 0.53647,-0.0803 0.17822,0.0564 0.35564,0.11053 0.53326,0.16701 0.0191,7.9e-4 0.0361,0.005 0.0552,0.006 -0.0249,-0.0131 -0.0237,-0.0175 -0.0552,-0.0351 -0.0249,-0.0131 0.0315,0.0208 0.0646,0.0351 0.001,-5e-5 0.004,-10e-5 0.007,0 0.0718,0.003 0.14442,-8e-4 0.21652,0.007 0.05,0.006 0.14039,-0.0301 0.14884,0.0196 0.05,-0.001 0.1007,-0.005 0.15182,-0.006 -0.10259,0.006 -0.0969,0.0189 -0.14843,0.0257 0.004,0.0394 0.0123,0.0794 0.0191,0.11893 0,0 0.004,0 0.004,0 0.35101,-0.19719 0.79381,-0.44893 0.84024,-0.48825 1.411,-0.63155 3.01722,-0.65813 4.52125,-0.81269 0.0893,-0.24936 0.12883,-0.57536 0.11632,-0.9733 -0.0312,-0.37841 -0.0873,-0.60115 -0.16808,-0.67455 z m -5.71052,2.7882 c -0.001,5e-5 -0.004,9e-5 -0.007,0 0.0248,0.0131 0.033,0.0232 0.0454,0.0319 0.004,10e-4 0.007,0.002 0.0122,0.003 0.004,-2.4e-4 0.007,2.6e-4 0.0123,0 -0.0312,-0.0168 -0.0334,-0.0202 -0.0646,-0.0351 z m 0.39429,0.16703 c -0.0273,0.015 -0.0369,0.0219 -0.0678,0.0382 0.0373,0.0313 0.0988,0.0782 0.0744,0.0576 -0.0123,-0.008 -0.0109,-0.002 -0.0169,-0.01 -0.0248,-0.015 -0.0392,-0.0319 -0.0582,-0.0482 0,0 -0.004,0 -0.004,0 -0.68233,0.3863 -1.3882,0.82176 -1.39291,1.08571 0.57974,-0.31724 1.49429,-0.82429 1.48016,-1.02147 -0.004,-0.0351 -0.0109,-0.0674 -0.0169,-0.10283 z m -1.46401,1.12426 c -0.46403,0.25374 -0.73303,0.39707 0.004,0.09 -0.0249,-0.0225 -0.004,-0.0595 -0.004,-0.09 z m 1.82919,-0.63922 v 0.003 z m -5.98846,34.6371 c 0.001,0.008 -0.001,0.0162 0,0.0225 7.9e-4,-0.002 0.004,-0.0131 0.004,-0.0131 -7.9e-4,-0.001 -10e-4,-0.008 -0.004,-0.0101 z"
       inkscape:connector-curvature="0"
       inkscape:export-filename="C:\Users\ppony\OneDrive\デスクトップ\portfolio\image\myk_logo.png"
       inkscape:export-xdpi="27.834101"
       inkscape:export-ydpi="27.834101" />
    <path
       id="path993"
       style="fill:#000000;stroke:#ffffff;stroke-width:1.47787857px;stroke-linecap:butt;stroke-linejoin:miter;stroke-opacity:1"
       d="m 141.44278,125.06043 c 7.9e-4,0.11104 -1.11816,0.40966 -1.89057,1.60931 -0.17738,0.2756 0.28052,-0.13538 -0.79504,1.53222 -0.79668,1.23522 -2.20922,2.98171 -3.92656,4.99176 2.69963,-2.99032 5.18943,-5.71054 7.07108,-7.67395 -0.74086,0.16099 1.00966,-0.18077 -0.45891,-0.45932 z m -6.61217,8.13329 c -2.66243,2.94907 -5.54943,6.20479 -8.55772,9.63657 3.15632,-3.49602 6.17219,-6.84445 8.55772,-9.63657 z m -8.55772,9.63657 c -4.47942,4.96153 -9.14624,10.15639 -12.32917,14.29427 3.83155,-4.53574 8.12872,-9.50247 12.32917,-14.29427 z"
       inkscape:connector-curvature="0"
       inkscape:export-filename="C:\Users\ppony\OneDrive\デスクトップ\portfolio\image\myk_logo.png"
       inkscape:export-xdpi="27.834101"
       inkscape:export-ydpi="27.834101" />
    <path
       id="text821-2"
       style="font-style:normal;font-variant:normal;font-weight:normal;font-stretch:normal;font-size:10.58333302px;line-height:1.25;font-family:'851MkPOP';-inkscape-font-specification:'851MkPOP';font-variant-ligatures:normal;font-variant-caps:normal;font-variant-numeric:normal;font-feature-settings:normal;text-align:start;letter-spacing:0px;word-spacing:0px;writing-mode:lr-tb;text-orientation:upright;text-anchor:start;fill:#ffffff;fill-opacity:1;stroke:none;stroke-width:1.58839655"
       d="m 120.83626,144.9299 c -7.9e-4,-0.006 -0.004,0.0189 -0.004,0.0183 7.9e-4,10e-4 10e-4,0.005 0.004,0.006 -7.9e-4,-0.007 0.001,-0.0162 0,-0.0238 z m -5.98794,32.71765 c -1.1506,0.26138 -0.003,1.43387 -1.10759,1.21584 -0.0191,0.19099 0.007,1.89444 -0.77655,2.91447 -0.25853,0.33752 -1.33733,0.4865 -2.60849,0.68497 -1.24963,0.17872 -2.22991,0.26802 -2.94088,0.26802 -0.10776,0.25812 -0.16175,0.59564 -0.16175,1.01256 0.0213,0.39707 0.0759,0.63532 0.16175,0.71474 0.68941,-0.0202 1.5189,-0.0595 2.48842,-0.11905 0.96954,-0.0595 1.83134,-0.0993 2.58542,-0.11912 0.77564,-0.0401 1.6051,-0.0595 2.48847,-0.0595 0.84023,0 1.61586,0.0202 2.32685,0.0595 0.71098,0.0202 1.49737,0.0595 2.35919,0.11912 0.8618,0.0595 1.58357,0.0992 2.16529,0.11905 0.0646,-0.15881 0.0969,-0.44674 0.0969,-0.86364 0,-0.41699 -0.0756,-0.70482 -0.22619,-0.86366 -0.73253,0 -1.72359,-0.0794 -2.9732,-0.23827 -1.24963,-0.17866 -1.5575,-0.20395 -2.26357,-0.70151 -1.21418,-0.64509 -1.48545,-3.4272 -1.12285,-4.28487 z m 31.83556,6.7451 c 0.0122,0.0169 0.0191,0.0545 0.0312,0.0656 0.0969,-0.003 0.26079,-0.0137 0.36522,-0.0183 -0.12583,-0.0169 -0.26578,-0.0376 -0.39397,-0.0476 z"
       inkscape:connector-curvature="0"
       sodipodi:nodetypes="ccccccccccccccscccscccccccccc"
       inkscape:export-filename="C:\Users\ppony\OneDrive\デスクトップ\portfolio\image\myk_logo.png"
       inkscape:export-xdpi="27.834101"
       inkscape:export-ydpi="27.834101" />
    <path
       id="text821-71"
       style="font-style:normal;font-variant:normal;font-weight:normal;font-stretch:normal;font-size:10.58333302px;line-height:1.25;font-family:'851MkPOP';-inkscape-font-specification:'851MkPOP';font-variant-ligatures:normal;font-variant-caps:normal;font-variant-numeric:normal;font-feature-settings:normal;text-align:start;letter-spacing:0px;word-spacing:0px;writing-mode:lr-tb;text-orientation:upright;text-anchor:start;fill:#ffffff;fill-opacity:1;stroke:none;stroke-width:1.49559736"
       d="m 138.7137,149.37208 c -10e-4,0.007 7.9e-4,0.0143 0,0.0213 0.001,-0.001 0.001,-0.004 0.004,-0.006 -2.6e-4,5.3e-4 -0.004,-0.0219 -0.004,-0.0156 z m 4.61816,3.07065 c 0.0436,-0.0685 -0.10369,0.13245 -0.15499,0.19806 0.0123,-0.0156 0.0373,-0.0301 0.05,-0.0445 0.0372,-0.0495 0.0721,-0.10196 0.10681,-0.15309 z m -0.86283,10.06738 c 0.001,0.11899 0.007,0.21284 0.0122,0.3327 0.007,-0.0614 0.0122,-0.12342 0.0251,-0.18481 -0.0122,-0.0495 -0.0251,-0.0986 -0.0312,-0.14785 z m 0.71093,18.25226 c -0.1352,0.01 0.49906,0.27196 0.38461,0.19276 -0.0625,-0.0419 -0.13072,-0.073 -0.197,-0.10829 -0.0312,-0.0131 -0.0436,-0.0143 -0.0624,-0.0213 -0.0375,-0.0219 -0.0777,-0.042 -0.11633,-0.0634 -0.004,1e-4 -0.007,0 -0.0122,0 z m -0.46216,0.50428 c 0.28393,0.52326 0.22453,0.655 -0.0251,0.94394 -0.17694,0.33283 -1.07371,0.3322 -2.32542,0.47917 -1.25144,0.12938 -2.24394,0.19149 -2.97644,0.18481 -0.15246,0.1394 -0.23078,0.39345 -0.23578,0.76304 -0.004,0.36958 0.0249,0.6269 0.0871,0.76832 0.5816,-0.0125 1.30279,-0.0426 2.16524,-0.0872 0.86249,-0.0445 1.64804,-0.0738 2.35922,-0.0845 0.71143,-0.0294 1.48983,-0.0395 2.33011,-0.0319 0.88324,0.008 1.71013,0.0345 2.48522,0.0765 0.75376,0.0244 1.61669,0.0676 2.58539,0.12937 0.96872,0.0614 1.79606,0.10324 2.48524,0.12669 0.0871,-0.0696 0.14526,-0.27929 0.17122,-0.63103 0.004,-0.36958 -0.0436,-0.67052 -0.14865,-0.90033 -0.71095,-0.007 -1.69029,-0.0943 -2.93768,-0.26407 -1.26871,-0.18754 -1.86583,-0.41755 -2.1203,-0.71907 -0.12882,-0.15429 -0.40149,-0.36175 -0.49717,-0.57466 -0.49468,0.003 -0.98923,-0.006 -1.48343,0.0107 -0.41774,-0.006 -1.42567,0.0162 -1.9196,-0.19011 z m -30.33012,2.85415 c -0.12882,0.008 -0.26846,0.0288 -0.39423,0.0426 0.1041,0.004 0.26842,0.0125 0.36515,0.0156 0.0123,-0.01 0.0219,-0.0432 0.0327,-0.0583 z"
       inkscape:connector-curvature="0"
       sodipodi:nodetypes="cccsccccccccccccccccccccccccccccccccccccccccccc"
       inkscape:export-filename="C:\Users\ppony\OneDrive\デスクトップ\portfolio\image\myk_logo.png"
       inkscape:export-xdpi="27.834101"
       inkscape:export-ydpi="27.834101" />
    <path
       style="fill:#ffffff;stroke:#ffffff;stroke-width:1.49795258;stroke-linecap:butt;stroke-linejoin:miter;stroke-miterlimit:4;stroke-dasharray:none;stroke-opacity:1"
       d="m 121.49477,148.33622 21.8728,32.51066 1.49654,0.28598 -23.36934,-32.79662"
       id="path1065"
       inkscape:connector-curvature="0"
       sodipodi:nodetypes="cccc"
       inkscape:export-filename="C:\Users\ppony\OneDrive\デスクトップ\portfolio\image\myk_logo.png"
       inkscape:export-xdpi="27.834101"
       inkscape:export-ydpi="27.834101" />
    <path
       id="path1153"
       style="fill:#000000;stroke:#ffffff;stroke-width:0.96640646;stroke-linecap:butt;stroke-linejoin:miter;stroke-miterlimit:4;stroke-dasharray:none;stroke-opacity:1"
       d="m 141.22127,110.0323 -3.79533,1.49045 c 7.23863,-5.22383 -20.69984,24.0049 -34.53228,38.09284 0.37862,0.39226 0.6439,0.93143 2.15908,-0.40979 8.39809,-9.91593 19.72888,-22.61697 32.71089,-36.34392 0.12692,-0.1342 0.25394,-0.26852 0.38149,-0.40284 1.3726,-1.29204 2.16514,-1.77695 3.07615,-2.42674 z"
       inkscape:connector-curvature="0"
       sodipodi:nodetypes="ccccscc"
       inkscape:export-filename="C:\Users\ppony\OneDrive\デスクトップ\portfolio\image\myk_logo.png"
       inkscape:export-xdpi="27.834101"
       inkscape:export-ydpi="27.834101" />
    <path
       id="text821-6-4"
       style="font-style:normal;font-variant:normal;font-weight:normal;font-stretch:normal;font-size:10.58333302px;line-height:1.25;font-family:'851MkPOP';-inkscape-font-specification:'851MkPOP';font-variant-ligatures:normal;font-variant-caps:normal;font-variant-numeric:normal;font-feature-settings:normal;text-align:start;letter-spacing:0px;word-spacing:0px;writing-mode:lr-tb;text-orientation:upright;text-anchor:start;fill:#ffffff;fill-opacity:1;stroke:none;stroke-width:1.24190152"
       d="m 143.86425,109.26983 c -0.49779,0.0169 -1.09643,0.0488 -1.79535,0.0991 -0.6999,0.0501 -1.32213,0.0842 -1.86672,0.10096 -0.56033,0.0338 -1.16019,0.0476 -1.79847,0.0469 -0.60661,-1.7e-4 -1.16651,-0.0143 -1.68041,-0.0476 -0.51341,-0.0169 -1.08133,-0.0507 -1.70418,-0.10071 -0.62288,-0.0501 -1.14424,-0.0841 -1.56461,-0.10152 -0.0436,0.13432 -0.0676,0.37992 -0.0644,0.73275 0.004,0.35287 0.0563,0.59402 0.16766,0.72847 0.52968,-5.3e-4 1.24631,0.066 2.14987,0.20057 0.90361,0.15124 1.81306,0.5835 1.76448,0.81087 -0.0123,0.0576 -0.0702,0.20946 -0.0826,0.26232 -0.15625,0.67097 -0.25518,0.68212 -0.39401,0.76196 0.11198,-0.098 0.57284,-0.97291 0.73193,-1.06378 0.0191,-0.0106 0.45779,-0.4488 0.0625,-0.0125 0.11375,-0.16803 0.0312,-0.20501 0.0312,-0.2131 0.0123,0.002 0.0251,0.0131 0.0312,0.015 0.15308,0.007 0.30582,0.005 0.45905,0.0106 0.0191,-0.007 0.0312,-0.0263 0.0564,-0.0319 0.13829,-0.0401 0.28393,-0.0376 0.42777,-0.0557 0.14127,0.0551 0.28143,0.11069 0.42149,0.16569 0.0191,8e-4 0.0312,0.005 0.0436,0.006 -0.0191,-0.0107 -0.0249,-0.0196 -0.0372,-0.0351 -0.0191,-0.0125 0.0249,0.0183 0.0436,0.0326 l -0.004,0.003 c 0.0191,0.0107 0.0251,0.0202 0.0312,0.0282 0.003,0.001 0.004,-2.6e-4 0.0123,8e-4 0.003,-1.5e-4 0.001,7.9e-4 0.0122,5.2e-4 -0.0191,-0.0143 -0.0251,-0.0213 -0.0373,-0.0319 0.0564,0.005 0.11632,0.003 0.1744,0.0112 0.0372,0.006 0.11184,-0.0202 0.11755,0.0244 0.0373,0.001 0.0815,-0.001 0.12135,-0.002 -0.0819,0.003 -0.0777,0.0131 -0.12012,0.0183 0.004,0.0357 0.007,0.0686 0.0122,0.10375 0.2839,-0.16532 0.64351,-0.37265 0.68143,-0.40628 1.13669,-0.52119 2.41751,-0.50271 3.61877,-0.59865 0.0759,-0.21848 0.11184,-0.50566 0.10939,-0.85851 -0.0191,-0.33589 -0.0564,-0.53559 -0.11823,-0.60303 z m -4.29182,2.46644 c -0.0248,0.0131 -0.0312,0.0213 -0.05,0.0357 0.0312,0.0294 -1.28562,-1.24902 -0.7581,-0.77985 -0.25455,-0.50278 0.77688,0.79829 0.7581,0.77985 l -0.003,-2e-4 c -0.55161,0.32368 -1.12271,0.69368 -1.13171,0.92735 0.46841,-0.26538 2.12461,-1.70503 2.11732,-1.88008 -0.004,-0.0326 -0.92357,0.95022 -0.93033,0.91772 z m 0.28143,0.44304 -1.9e-4,0.003 z m -1.47107,0.51599 c -0.37462,0.21222 -0.59102,0.33514 -0.001,0.0836 -0.0251,-0.0202 -0.001,-0.0557 0.001,-0.0836 z"
       inkscape:connector-curvature="0"
       sodipodi:nodetypes="ccccccccccsscccccccccccccccccccccccccccccccccccccccccc"
       inkscape:export-filename="C:\Users\ppony\OneDrive\デスクトップ\portfolio\image\myk_logo.png"
       inkscape:export-xdpi="27.834101"
       inkscape:export-ydpi="27.834101" />
    <path
       id="text821-6-9"
       style="font-style:normal;font-variant:normal;font-weight:normal;font-stretch:normal;font-size:10.58333302px;line-height:1.25;font-family:'851MkPOP';-inkscape-font-specification:'851MkPOP';font-variant-ligatures:normal;font-variant-caps:normal;font-variant-numeric:normal;font-feature-settings:normal;text-align:start;letter-spacing:0px;word-spacing:0px;writing-mode:lr-tb;text-orientation:upright;text-anchor:start;fill:#ffffff;fill-opacity:1;stroke:none;stroke-width:1.26376641"
       d="m 117.14723,109.03404 c -0.0538,0.0804 -0.0849,0.32274 -0.0969,0.72594 7.9e-4,0.42356 0.0323,0.76548 0.1003,1.0279 1.03749,0.11992 2.14614,0.10589 3.13157,0.73561 0.0331,0.0407 0.34489,0.29187 0.59142,0.49151 0.004,-0.0426 0.007,-0.0844 0.0109,-0.12532 -0.0356,-0.007 -0.0293,-0.0225 -0.10029,-0.0257 0.0823,0.007 0.12774,-0.0131 0.20356,-0.0225 0.0169,-0.003 0.0342,-0.002 0.0519,-0.003 0.29667,-0.51348 0.27047,-0.65415 0.26176,-0.64243 -0.004,0.008 0.9278,-0.0657 0.24885,0.43046 0.12421,0.0232 0.24853,0.0196 0.36842,0.0674 0.0169,0.008 0.0319,0.0294 0.0488,0.0388 0.1325,-0.007 0.26612,-0.003 0.3975,-0.0131 0.004,-0.002 0.0169,-0.01 0.0258,-0.0131 0.0312,-0.01 0.0634,-0.0219 0.0938,-0.0294 -0.0731,0.0526 -0.0849,0.15756 -0.0646,0.28586 0.0147,0.008 0.035,-0.003 0.0488,0.0101 0.13661,0.10972 0.54889,0.83579 0.64634,0.95401 0.0219,-0.13959 -0.31487,-0.80716 -0.2876,-0.91869 0.10627,-0.38286 0.60148,-0.77262 1.37995,-0.95082 0.77856,-0.15787 1.39519,-0.23357 1.85182,-0.23132 0.0931,-0.16089 0.14042,-0.4503 0.13893,-0.87371 -0.001,-0.42332 -0.0211,-0.71935 -0.0646,-0.88016 -0.36255,0.0202 -0.81384,0.0576 -1.35087,0.1156 -0.5371,0.0582 -1.02405,0.0977 -1.46723,0.11561 -0.44315,0.0382 -0.92728,0.0538 -1.45102,0.0514 -0.55074,-0.002 -1.06771,-0.0219 -1.55125,-0.0643 -0.47017,-0.0225 -1.00813,-0.0686 -1.61268,-0.1317 -0.60331,-0.0632 -1.11866,-0.10362 -1.54802,-0.12532 z m 4.40166,2.59223 c -0.12121,0.0654 -0.24452,0.13013 -0.36516,0.19595 -0.0123,0.002 -0.027,0.005 -0.0386,0.007 h -0.004 c -0.0147,0.0131 -0.0169,0.0257 -0.0256,0.0357 -0.004,0.002 -0.004,0.002 -0.0109,0.003 -0.004,-1.2e-4 -0.004,8e-5 -0.0109,0 0.0211,-0.0183 0.0211,-0.0232 0.0386,-0.0388 -0.0319,0.003 -0.0648,0.008 -0.0972,0.01 -0.0283,0.0489 -0.029,0.0614 -0.0646,0.11893 z m -0.57523,0.33089 -0.10028,0.0576 c 0.0594,0.12348 1.71911,1.81541 0.0488,0.042 0.0356,-0.0539 0.0221,-0.0514 0.0519,-0.0996 z m -0.33934,0.58782 v 0.003 z m 1.2733,0.6232 c 0.001,0.0332 0.0169,0.072 0,0.0963 0.51365,0.30483 0.32521,0.15955 0,-0.0963 z"
       inkscape:connector-curvature="0"
       inkscape:export-filename="C:\Users\ppony\OneDrive\デスクトップ\portfolio\image\myk_logo.png"
       inkscape:export-xdpi="27.834101"
       inkscape:export-ydpi="27.834101" />
    <path
       style="fill:#ffffff;stroke:#ffffff;stroke-width:0.62348801;stroke-linecap:butt;stroke-linejoin:miter;stroke-miterlimit:4;stroke-dasharray:none;stroke-opacity:1"
       d="m 121.36565,110.56034 c 0.524,-0.4158 -0.0368,0.63911 -0.58851,0.50303 1.60748,1.6121 -0.14293,0.34886 0.11443,0.57241 0.12855,0.11191 0.90266,0.66257 1.38743,1.65374 1.7367,3.55086 5.90475,9.8384 5.9161,9.83197 0.5162,1.00192 -3.74713,-6.47403 -5.38922,-10.19901 -0.66451,-1.50739 -0.0169,-1.83306 -0.14422,-2.07376 -0.73833,-1.39709 -2.11965,-0.1823 -1.29609,-0.28843 z"
       id="path993-8"
       inkscape:connector-curvature="0"
       sodipodi:nodetypes="ccsscsscc"
       inkscape:export-filename="C:\Users\ppony\OneDrive\デスクトップ\portfolio\image\myk_logo.png"
       inkscape:export-xdpi="27.834101"
       inkscape:export-ydpi="27.834101" />
    <path
       style="fill:none;stroke:#ffffff;stroke-width:2.27573133;stroke-linecap:butt;stroke-linejoin:miter;stroke-miterlimit:4;stroke-dasharray:none;stroke-opacity:1"
       d="m 112.51345,82.218213 2.07978,99.459447"
       id="path1300"
       inkscape:connector-curvature="0"
       sodipodi:nodetypes="cc"
       inkscape:export-filename="C:\Users\ppony\OneDrive\デスクトップ\portfolio\image\myk_logo.png"
       inkscape:export-xdpi="27.834101"
       inkscape:export-ydpi="27.834101" />
    <path
       style="fill:#ffffff;stroke:#ffffff;stroke-width:0.40526721;stroke-linecap:butt;stroke-linejoin:miter;stroke-miterlimit:4;stroke-dasharray:none;stroke-opacity:1"
       d="m 105.97362,146.42205 c -1.2841,0.42055 -1.64398,0.92397 -4.35533,0.61906 -1.44054,-0.16199 -2.438069,0.44241 -2.436238,1.67957 0.003,1.45684 3.283648,2.11942 4.954308,1.63552 1.59902,-0.46314 3.15356,-3.85223 3.15356,-3.85223"
       id="path1302"
       inkscape:connector-curvature="0"
       sodipodi:nodetypes="cssac"
       inkscape:export-filename="C:\Users\ppony\OneDrive\デスクトップ\portfolio\image\myk_logo.png"
       inkscape:export-xdpi="27.834101"
       inkscape:export-ydpi="27.834101" />
    <path
       style="fill:none;stroke:#ffffff;stroke-width:2.14479899;stroke-linecap:round;stroke-linejoin:round;stroke-miterlimit:4;stroke-dasharray:none;stroke-opacity:1"
       d="m 94.885462,62.188479 -31.439951,13.070984 0.0071,102.758477"
       id="path1311"
       inkscape:connector-curvature="0"
       sodipodi:nodetypes="ccc"
       inkscape:export-filename="C:\Users\ppony\OneDrive\デスクトップ\portfolio\image\myk_logo.png"
       inkscape:export-xdpi="27.834101"
       inkscape:export-ydpi="27.834101" />
    <path
       style="fill:none;stroke:#ffffff;stroke-width:2.14479899;stroke-linecap:round;stroke-linejoin:miter;stroke-miterlimit:4;stroke-dasharray:none;stroke-opacity:1"
       d="M 95.27364,191.25043 63.452389,178.01794"
       id="path1311-4"
       inkscape:connector-curvature="0"
       sodipodi:nodetypes="cc"
       inkscape:export-filename="C:\Users\ppony\OneDrive\デスクトップ\portfolio\image\myk_logo.png"
       inkscape:export-xdpi="27.834101"
       inkscape:export-ydpi="27.834101" />
    <path
       style="fill:none;stroke:#ffffff;stroke-width:1.52887726;stroke-linecap:round;stroke-linejoin:miter;stroke-miterlimit:4;stroke-dasharray:none;stroke-opacity:1"
       d="m 91.033052,71.179408 -10.896951,-2.82409 4.22535,-8.288093"
       id="path1382"
       inkscape:connector-curvature="0"
       sodipodi:nodetypes="ccc"
       inkscape:export-filename="C:\Users\ppony\OneDrive\デスクトップ\portfolio\image\myk_logo.png"
       inkscape:export-xdpi="27.834101"
       inkscape:export-ydpi="27.834101" />
    <path
       style="fill:none;stroke:#ffffff;stroke-width:1.52887726;stroke-linecap:round;stroke-linejoin:miter;stroke-miterlimit:4;stroke-dasharray:none;stroke-opacity:1"
       d="M 97.830272,68.245895 86.933321,65.421811 91.15866,57.133712"
       id="path1382-2"
       inkscape:connector-curvature="0"
       sodipodi:nodetypes="ccc"
       inkscape:export-filename="C:\Users\ppony\OneDrive\デスクトップ\portfolio\image\myk_logo.png"
       inkscape:export-xdpi="27.834101"
       inkscape:export-ydpi="27.834101" />
    <ellipse
       style="opacity:1;fill:#ffffff;fill-opacity:1;stroke:none;stroke-width:1.97169006;stroke-linecap:round;stroke-linejoin:round;stroke-miterlimit:4;stroke-dasharray:none;stroke-dashoffset:0;stroke-opacity:1;paint-order:stroke fill markers"
       id="path1399"
       cx="96.382576"
       cy="61.20863"
       rx="3.0378561"
       ry="3.0965559"
       inkscape:export-filename="C:\Users\ppony\OneDrive\デスクトップ\portfolio\image\myk_logo.png"
       inkscape:export-xdpi="27.834101"
       inkscape:export-ydpi="27.834101" />
    <path
       style="fill:none;stroke:#ffffff;stroke-width:2.14479899;stroke-linecap:round;stroke-linejoin:round;stroke-miterlimit:4;stroke-dasharray:none;stroke-opacity:1"
       d="m 130.39399,203.72818 31.43993,-13.07099 -0.0122,-102.520214"
       id="path1311-5"
       inkscape:connector-curvature="0"
       sodipodi:nodetypes="ccc"
       inkscape:export-filename="C:\Users\ppony\OneDrive\デスクトップ\portfolio\image\myk_logo.png"
       inkscape:export-xdpi="27.834101"
       inkscape:export-ydpi="27.834101" />
    <path
       style="fill:none;stroke:#ffffff;stroke-width:2.14479899;stroke-linecap:round;stroke-linejoin:miter;stroke-miterlimit:4;stroke-dasharray:none;stroke-opacity:1"
       d="m 130.38142,75.065992 31.44,13.070984"
       id="path1311-4-4"
       inkscape:connector-curvature="0"
       sodipodi:nodetypes="cc"
       inkscape:export-filename="C:\Users\ppony\OneDrive\デスクトップ\portfolio\image\myk_logo.png"
       inkscape:export-xdpi="27.834101"
       inkscape:export-ydpi="27.834101" />
    <path
       style="fill:none;stroke:#ffffff;stroke-width:1.52887726;stroke-linecap:round;stroke-linejoin:miter;stroke-miterlimit:4;stroke-dasharray:none;stroke-opacity:1"
       d="m 134.24641,194.73725 10.89696,2.82409 -4.22537,8.28809"
       id="path1382-7"
       inkscape:connector-curvature="0"
       sodipodi:nodetypes="ccc"
       inkscape:export-filename="C:\Users\ppony\OneDrive\デスクトップ\portfolio\image\myk_logo.png"
       inkscape:export-xdpi="27.834101"
       inkscape:export-ydpi="27.834101" />
    <path
       style="fill:none;stroke:#ffffff;stroke-width:1.52887726;stroke-linecap:round;stroke-linejoin:miter;stroke-miterlimit:4;stroke-dasharray:none;stroke-opacity:1"
       d="m 127.44917,197.67076 10.89694,2.82409 -4.22533,8.2881"
       id="path1382-2-5"
       inkscape:connector-curvature="0"
       sodipodi:nodetypes="ccc"
       inkscape:export-filename="C:\Users\ppony\OneDrive\デスクトップ\portfolio\image\myk_logo.png"
       inkscape:export-xdpi="27.834101"
       inkscape:export-ydpi="27.834101" />
    <ellipse
       style="opacity:1;fill:#ffffff;fill-opacity:1;stroke:none;stroke-width:1.97169006;stroke-linecap:round;stroke-linejoin:round;stroke-miterlimit:4;stroke-dasharray:none;stroke-dashoffset:0;stroke-opacity:1;paint-order:stroke fill markers"
       id="path1399-0"
       cx="-128.89685"
       cy="-204.70802"
       rx="3.0378561"
       ry="3.0965559"
       transform="scale(-1)"
       inkscape:export-filename="C:\Users\ppony\OneDrive\デスクトップ\portfolio\image\myk_logo.png"
       inkscape:export-xdpi="27.834101"
       inkscape:export-ydpi="27.834101" />
  </g>
</svg>
